#N canvas 435 25 1046 688 10;
#X obj 450 658 outlet;
#X msg 18 20 open videos/analogrecycling/AR_ARROW_1.mov;
#X msg 18 43 open videos/analogrecycling/AR_ARROW_3.mov;
#X msg 18 67 open videos/analogrecycling/AR_ARROW_4.mov;
#X msg 18 91 open videos/analogrecycling/AR_BALLS_1.mov;
#X msg 18 115 open videos/analogrecycling/AR_BALLS_2.mov;
#X msg 18 140 open videos/analogrecycling/AR_BALLS_3.mov;
#X msg 18 165 open videos/analogrecycling/AR_BLUE_1.mov;
#X msg 18 190 open videos/analogrecycling/AR_BLUE_2.mov;
#X msg 18 214 open videos/analogrecycling/AR_BLUE_3.mov;
#X msg 18 238 open videos/analogrecycling/AR_BLUE_4.mov;
#X msg 18 285 open videos/analogrecycling/AR_CITY_CHINA_1.mov;
#X msg 18 309 open videos/analogrecycling/AR_CITY_CHINA_2.mov;
#X msg 18 333 open videos/analogrecycling/AR_COLOUR_1.mov;
#X msg 18 357 open videos/analogrecycling/AR_COLOUR_2.mov;
#X msg 18 382 open videos/analogrecycling/AR_COLOUR_3.mov;
#X msg 18 408 open videos/analogrecycling/AR_COLOUR_4.mov;
#X msg 18 434 open videos/analogrecycling/AR_COLOUR_5.mov;
#X msg 19 458 open videos/analogrecycling/AR_FIRE_1.mov;
#X msg 19 481 open videos/analogrecycling/AR_FXCOOL_1.mov;
#X msg 19 505 open videos/analogrecycling/AR_FXCOOL_2.mov;
#X msg 19 529 open videos/analogrecycling/AR_FXCOOL_3.mov;
#X msg 19 553 open videos/analogrecycling/AR_FXCOOL_4.mov;
#X msg 19 578 open videos/analogrecycling/AR_FXCOOL_5.mov;
#X msg 19 603 open videos/analogrecycling/AR_FXCOOL_6.mov;
#X msg 19 628 open videos/analogrecycling/AR_FXCOOL_7.mov;
#X msg 318 20 open videos/analogrecycling/AR_FXCOOL_8.mov;
#X msg 318 44 open videos/analogrecycling/AR_FXCOOL_9.mov;
#X msg 318 68 open videos/analogrecycling/AR_GRAFX_GLO_1.mov;
#X msg 318 91 open videos/analogrecycling/AR_GRAFX_GLO_2.mov;
#X msg 318 115 open videos/analogrecycling/AR_GRAFX_GLO_3.mov;
#X msg 318 139 open videos/analogrecycling/AR_GRAFX_GLO_4.mov;
#X msg 318 163 open videos/analogrecycling/AR_GRAFX_GLO_5.mov;
#X msg 318 188 open videos/analogrecycling/AR_GRAFX_GLO_6.mov;
#X msg 318 214 open videos/analogrecycling/AR_GRAFX_GLO_7.mov;
#X msg 318 238 open videos/analogrecycling/AR_GRAFX_KNOBS.mov;
#X msg 318 261 open videos/analogrecycling/AR_GRAFX_PURPLE_1.mov;
#X msg 318 285 open videos/analogrecycling/AR_GRAFX_PURPLE_2.mov;
#X msg 318 309 open videos/analogrecycling/AR_GRAFX_PURPLE_3.mov;
#X msg 318 333 open videos/analogrecycling/AR_GRAFX_PURPLE_4.mov;
#X msg 318 358 open videos/analogrecycling/AR_GRAFX_TUN_1.mov;
#X msg 318 384 open videos/analogrecycling/AR_GRAFX_TUN_2.mov;
#X msg 318 410 open videos/analogrecycling/AR_GRUNGE_GUITARS.mov;
#X msg 319 434 open videos/analogrecycling/AR_GRUNGE_MATRIXX.mov;
#X msg 319 457 open videos/analogrecycling/AR_GRUNGE_PILOT.mov;
#X msg 319 481 open videos/analogrecycling/AR_GRUNGE_REDDANCE.mov;
#X msg 319 505 open videos/analogrecycling/AR_GRUNGE_SMPTESUN.mov;
#X msg 319 529 open videos/analogrecycling/AR_GRUNGE_TV.mov;
#X msg 319 554 open videos/analogrecycling/AR_HAL_ROUND.mov;
#X msg 319 579 open videos/analogrecycling/AR_HEART_1.mov;
#X msg 319 604 open videos/analogrecycling/AR_HEART_2.mov;
#X msg 319 628 open videos/analogrecycling/AR_INCONTROL.mov;
#X msg 638 20 open videos/analogrecycling/AR_KALEI_1.mov;
#X msg 638 44 open videos/analogrecycling/AR_KALEI_2.mov;
#X msg 638 67 open videos/analogrecycling/AR_LINES_1.mov;
#X msg 638 91 open videos/analogrecycling/AR_LOGO_GLO.mov;
#X msg 638 115 open videos/analogrecycling/AR_LOGO_SMPTE.mov;
#X msg 638 139 open videos/analogrecycling/AR_LOGO_TEEP.mov;
#X msg 638 164 open videos/analogrecycling/AR_RED_BLUE.mov;
#X msg 638 190 open videos/analogrecycling/AR_ROBOT_FIRE_1.mov;
#X msg 638 214 open videos/analogrecycling/AR_ROBOT_FIRE_2.mov;
#X msg 638 237 open videos/analogrecycling/AR_ROBOT_FIRE_3.mov;
#X msg 638 261 open videos/analogrecycling/AR_ROBOT_FIRE_4.mov;
#X msg 638 285 open videos/analogrecycling/AR_ROBOT_MASCOT.mov;
#X msg 638 309 open videos/analogrecycling/AR_ROBOT_RADIAL.mov;
#X msg 638 334 open videos/analogrecycling/AR_SL1200.mov;
#X msg 638 360 open videos/analogrecycling/AR_SL1200_SCRATCH.mov;
#X msg 638 386 open videos/analogrecycling/AR_SPEEDCAR.mov;
#X msg 639 410 open videos/analogrecycling/AR_STARS.mov;
#X msg 639 433 open videos/analogrecycling/AR_STARS_ROBOT.mov;
#X msg 639 457 open videos/analogrecycling/AR_WORD_BELIEVE.mov;
#X msg 639 481 open videos/analogrecycling/AR_WORDFEELDANCE.mov;
#X msg 639 505 open videos/analogrecycling/AR_WORD_FEELMUSIC.mov;
#X msg 639 530 open videos/analogrecycling/AR_WORD_LOVEDDANCE.mov;
#X msg 639 555 open videos/analogrecycling/AR_WORD_LOVEMUSIC.mov;
#X msg 639 580 open videos/analogrecycling/AR_WORD_MIX.mov;
#X msg 639 605 open videos/analogrecycling/AR_WORD_YOUFEEL.mov;
#X msg 639 630 open videos/analogrecycling/AR_XPLO_CUBE.mov;
#X msg 18 262 open videos/analogrecycling/AR_CILINDER_1.mov;
#X connect 1 0 0 0;
#X connect 2 0 0 0;
#X connect 3 0 0 0;
#X connect 4 0 0 0;
#X connect 5 0 0 0;
#X connect 6 0 0 0;
#X connect 7 0 0 0;
#X connect 8 0 0 0;
#X connect 9 0 0 0;
#X connect 10 0 0 0;
#X connect 11 0 0 0;
#X connect 12 0 0 0;
#X connect 13 0 0 0;
#X connect 14 0 0 0;
#X connect 15 0 0 0;
#X connect 16 0 0 0;
#X connect 17 0 0 0;
#X connect 18 0 0 0;
#X connect 19 0 0 0;
#X connect 20 0 0 0;
#X connect 21 0 0 0;
#X connect 22 0 0 0;
#X connect 23 0 0 0;
#X connect 24 0 0 0;
#X connect 25 0 0 0;
#X connect 26 0 0 0;
#X connect 27 0 0 0;
#X connect 28 0 0 0;
#X connect 29 0 0 0;
#X connect 30 0 0 0;
#X connect 31 0 0 0;
#X connect 32 0 0 0;
#X connect 33 0 0 0;
#X connect 34 0 0 0;
#X connect 35 0 0 0;
#X connect 36 0 0 0;
#X connect 37 0 0 0;
#X connect 38 0 0 0;
#X connect 39 0 0 0;
#X connect 40 0 0 0;
#X connect 41 0 0 0;
#X connect 42 0 0 0;
#X connect 43 0 0 0;
#X connect 44 0 0 0;
#X connect 45 0 0 0;
#X connect 46 0 0 0;
#X connect 47 0 0 0;
#X connect 48 0 0 0;
#X connect 49 0 0 0;
#X connect 50 0 0 0;
#X connect 51 0 0 0;
#X connect 52 0 0 0;
#X connect 53 0 0 0;
#X connect 54 0 0 0;
#X connect 55 0 0 0;
#X connect 56 0 0 0;
#X connect 57 0 0 0;
#X connect 58 0 0 0;
#X connect 59 0 0 0;
#X connect 60 0 0 0;
#X connect 61 0 0 0;
#X connect 62 0 0 0;
#X connect 63 0 0 0;
#X connect 64 0 0 0;
#X connect 65 0 0 0;
#X connect 66 0 0 0;
#X connect 67 0 0 0;
#X connect 68 0 0 0;
#X connect 69 0 0 0;
#X connect 70 0 0 0;
#X connect 71 0 0 0;
#X connect 72 0 0 0;
#X connect 73 0 0 0;
#X connect 74 0 0 0;
#X connect 75 0 0 0;
#X connect 76 0 0 0;
#X connect 77 0 0 0;
#X connect 78 0 0 0;
