#N canvas 207 26 1046 687 10;
#X obj 450 658 outlet;
#X msg 18 20 open videos/analogrecycling2/AR_8BIT_1.mov;
#X msg 18 43 open videos/analogrecycling2/AR_8BIT_2.mov;
#X msg 18 67 open videos/analogrecycling2/AR_8BIT_3.mov;
#X msg 18 91 open videos/analogrecycling2/AR_8BIT_4.mov;
#X msg 18 115 open videos/analogrecycling2/AR_8BIT_5.mov;
#X msg 18 140 open videos/analogrecycling2/Ar_8BIT_6.mov;
#X msg 18 165 open videos/analogrecycling2/Ar_8BIT_7.mov;
#X msg 18 190 open videos/analogrecycling2/Ar_8BIT_8.mov;
#X msg 18 214 open videos/analogrecycling2/Ar_8BIT_9.mov;
#X msg 18 238 open videos/analogrecycling2/Ar_8BIT_10.mov;
#X msg 18 262 open videos/analogrecycling2/Ar_8BIT_11.mov;
#X msg 18 285 open videos/analogrecycling2/Ar_8BIT_12.mov;
#X msg 18 309 open videos/analogrecycling2/AR_ARROWLITE.mov;
#X msg 18 333 open videos/analogrecycling2/AR_ARROWSINE_1.mov;
#X msg 18 357 open videos/analogrecycling2/AR_ARROWSINE_2.mov;
#X msg 18 382 open videos/analogrecycling2/AR_BLACKDATA_1.mov;
#X msg 18 408 open videos/analogrecycling2/AR_BLACKDATA_2.mov;
#X msg 18 434 open videos/analogrecycling2/AR_BLACKDATA_3.mov;
#X msg 18 458 open videos/analogrecycling2/AR_BLOKSTREAK_1.mov;
#X msg 18 481 open videos/analogrecycling2/AR_BLOKSTREAK_2.mov;
#X msg 18 505 open videos/analogrecycling2/AR_BLOKSTREAK_3.mov;
#X msg 18 529 open videos/analogrecycling2/AR_BLOKSTREAK_4.mov;
#X msg 18 553 open videos/analogrecycling2/AR_BLOX_1.mov;
#X msg 18 578 open videos/analogrecycling2/AR_BLOX_2.mov;
#X msg 18 603 open videos/analogrecycling2/AR_BOUGIE_1.mov;
#X msg 18 628 open videos/analogrecycling2/AR_BOUGIE_2.mov;
#X msg 318 20 open videos/analogrecycling2/AR_BOUGIE_3.mov;
#X msg 318 44 open videos/analogrecycling2/AR_BOUGIE_4.mov;
#X msg 318 68 open videos/analogrecycling2/AR_CHINACITY_1.mov;
#X msg 318 91 open videos/analogrecycling2/AR_CHINACITY_2.mov;
#X msg 318 115 open videos/analogrecycling2/AR_COLORCIRC_1.mov;
#X msg 318 139 open videos/analogrecycling2/AR_DATA_1.mov;
#X msg 318 163 open videos/analogrecycling2/AR_DATA_2.mov;
#X msg 318 188 open videos/analogrecycling2/AR_FLARE_BLUE.mov;
#X msg 318 214 open videos/analogrecycling2/AR_FLARE_GREEN.mov;
#X msg 318 238 open videos/analogrecycling2/AR_FLARE_RED.mov;
#X msg 318 261 open videos/analogrecycling2/AR_GLITCH.mov;
#X msg 318 285 open videos/analogrecycling2/AR_GRLL_1.mov;
#X msg 318 309 open videos/analogrecycling2/AR_GRLL_2.mov;
#X msg 318 333 open videos/analogrecycling2/AR_GRLL_3.mov;
#X msg 318 358 open videos/analogrecycling2/AR_GRLL_4.mov;
#X msg 318 384 open videos/analogrecycling2/AR_HAL_1.mov;
#X msg 318 410 open videos/analogrecycling2/AR_HAL_2.mov;
#X msg 319 434 open videos/analogrecycling2/AR_HAL_3.mov;
#X msg 319 457 open videos/analogrecycling2/AR_HART_1.mov;
#X msg 319 481 open videos/analogrecycling2/AR_HART_2.mov;
#X msg 319 505 open videos/analogrecycling2/AR_HART_3.mov;
#X msg 319 529 open videos/analogrecycling2/AR_HART_4.mov;
#X msg 319 554 open videos/analogrecycling2/AR_HART_5.mov;
#X msg 319 579 open videos/analogrecycling2/AR_LIQUID_BLUE_1.mov;
#X msg 319 604 open videos/analogrecycling2/AR_LIQUID_BLUE_2.mov;
#X msg 319 628 open videos/analogrecycling2/AR_LIQUID_RED.mov;
#X msg 638 20 open videos/analogrecycling2/AR_LITENING_1.mov;
#X msg 638 44 open videos/analogrecycling2/AR_LITENING_2.mov;
#X msg 638 67 open videos/analogrecycling2/AR_PURRLINE_1.mov;
#X msg 638 91 open videos/analogrecycling2/AR_RBLINE_1.mov;
#X msg 638 115 open videos/analogrecycling2/AR_RBLINE_2.mov;
#X msg 638 139 open videos/analogrecycling2/AR_RBLINE_3.mov;
#X msg 638 164 open videos/analogrecycling2/AR_RBLINE_4.mov;
#X msg 638 190 open videos/analogrecycling2/AR_RBLINE_5.mov;
#X msg 638 214 open videos/analogrecycling2/AR_RBLINE_6.mov;
#X msg 638 237 open videos/analogrecycling2/AR_RBSTREAX_1.mov;
#X msg 638 261 open videos/analogrecycling2/AR_RBSTREAX_2.mov;
#X msg 638 285 open videos/analogrecycling2/AR_REDBLAXSYM.mov;
#X msg 638 309 open videos/analogrecycling2/AR_REDDATA_1.MOV;
#X msg 638 334 open videos/analogrecycling2/AR_REDDATA_2.MOV;
#X msg 638 360 open videos/analogrecycling2/AR_REDDATA_3.mov;
#X msg 638 386 open videos/analogrecycling2/AR_RICOTEK.mov;
#X msg 639 410 open videos/analogrecycling2/AR_SINE_1.mov;
#X msg 639 433 open videos/analogrecycling2/AR_SINE_2.mov;
#X msg 639 457 open videos/analogrecycling2/AR_STREAK_1.mov;
#X msg 639 481 open videos/analogrecycling2/AR_STREAK_2.mov;
#X msg 639 505 open videos/analogrecycling2/AR_TRENSLINE_1.mov;
#X msg 639 530 open videos/analogrecycling2/AR_TRENSLINE_2.mov;
#X msg 639 555 open videos/analogrecycling2/AR_TRENSLINE_3.mov;
#X msg 639 580 open videos/analogrecycling2/AR_TRENSLINE_4.mov;
#X msg 639 605 open videos/analogrecycling2/AR_TRENSLINE_5.mov;
#X msg 639 630 open videos/analogrecycling2/AR_TURNMANGA.mov;
#X msg 639 655 open videos/analogrecycling2/AR_WAVEE.mov;
#X connect 1 0 0 0;
#X connect 2 0 0 0;
#X connect 3 0 0 0;
#X connect 4 0 0 0;
#X connect 5 0 0 0;
#X connect 6 0 0 0;
#X connect 7 0 0 0;
#X connect 8 0 0 0;
#X connect 9 0 0 0;
#X connect 10 0 0 0;
#X connect 11 0 0 0;
#X connect 12 0 0 0;
#X connect 13 0 0 0;
#X connect 14 0 0 0;
#X connect 15 0 0 0;
#X connect 16 0 0 0;
#X connect 17 0 0 0;
#X connect 18 0 0 0;
#X connect 19 0 0 0;
#X connect 20 0 0 0;
#X connect 21 0 0 0;
#X connect 22 0 0 0;
#X connect 23 0 0 0;
#X connect 24 0 0 0;
#X connect 25 0 0 0;
#X connect 26 0 0 0;
#X connect 27 0 0 0;
#X connect 28 0 0 0;
#X connect 29 0 0 0;
#X connect 30 0 0 0;
#X connect 31 0 0 0;
#X connect 32 0 0 0;
#X connect 33 0 0 0;
#X connect 34 0 0 0;
#X connect 35 0 0 0;
#X connect 36 0 0 0;
#X connect 37 0 0 0;
#X connect 38 0 0 0;
#X connect 39 0 0 0;
#X connect 40 0 0 0;
#X connect 41 0 0 0;
#X connect 42 0 0 0;
#X connect 43 0 0 0;
#X connect 44 0 0 0;
#X connect 45 0 0 0;
#X connect 46 0 0 0;
#X connect 47 0 0 0;
#X connect 48 0 0 0;
#X connect 49 0 0 0;
#X connect 50 0 0 0;
#X connect 51 0 0 0;
#X connect 52 0 0 0;
#X connect 53 0 0 0;
#X connect 54 0 0 0;
#X connect 55 0 0 0;
#X connect 56 0 0 0;
#X connect 57 0 0 0;
#X connect 58 0 0 0;
#X connect 59 0 0 0;
#X connect 60 0 0 0;
#X connect 61 0 0 0;
#X connect 62 0 0 0;
#X connect 63 0 0 0;
#X connect 64 0 0 0;
#X connect 65 0 0 0;
#X connect 66 0 0 0;
#X connect 67 0 0 0;
#X connect 68 0 0 0;
#X connect 69 0 0 0;
#X connect 70 0 0 0;
#X connect 71 0 0 0;
#X connect 72 0 0 0;
#X connect 73 0 0 0;
#X connect 74 0 0 0;
#X connect 75 0 0 0;
#X connect 76 0 0 0;
#X connect 77 0 0 0;
#X connect 78 0 0 0;
#X connect 79 0 0 0;
