#N canvas 661 327 450 300 10;
#X obj 6 9 inlet;
#X obj 6 224 outlet;
#X obj 6 79 pdp_spigot;
#X obj 63 45 inlet;
#X obj 88 79 inlet;
#X obj 139 79 inlet;
#X text 109 25 inlets: 1 video (pdp);
#X text 157 35 2 toggle (ativa ou nao o efeito);
#X text 109 5 AGING (pdp_aging);
#X obj 63 150 pdp_aging;
#X floatatom 88 109 5 0 0 0 - - -;
#X floatatom 139 109 5 0 0 0 - - -;
#X text 143 93 Number of scratches;
#X text 65 93 Dust density;
#X text 157 45 3 number (densidade da areia);
#X text 157 55 4 number (número de arranhões);
#X connect 0 0 2 0;
#X connect 2 0 1 0;
#X connect 2 1 9 0;
#X connect 3 0 2 1;
#X connect 4 0 10 0;
#X connect 5 0 11 0;
#X connect 9 0 1 0;
#X connect 10 0 9 1;
#X connect 11 0 9 2;
