#N canvas 767 312 450 300 10;
#X obj 9 12 inlet;
#X obj 9 238 outlet;
#X obj 9 89 pdp_spigot;
#X obj 66 40 inlet;
#X obj 66 164 pdp_ascii;
#X msg 91 122 color \$1;
#X obj 91 89 inlet;
#X obj 142 122 + 1;
#X obj 142 89 inlet;
#X text 109 25 inlets: 1 video (pdp);
#X text 157 35 2 toggle (ativa ou nao o efeito);
#X text 157 45 3 toggle (ativa ou nao cor);
#X text 157 55 4 fator de ampliação \, de 0 a 28;
#X text 109 5 ASCII (pdp_ascii);
#X connect 0 0 2 0;
#X connect 2 0 1 0;
#X connect 2 1 4 0;
#X connect 3 0 2 1;
#X connect 4 0 1 0;
#X connect 5 0 4 0;
#X connect 6 0 5 0;
#X connect 7 0 4 1;
#X connect 8 0 7 0;
