#N canvas 661 328 450 299 10;
#X obj 6 9 inlet;
#X obj 6 224 outlet;
#X obj 6 79 pdp_spigot;
#X obj 63 45 inlet;
#X text 109 25 inlets: 1 video (pdp);
#X text 157 35 2 toggle (ativa ou nao o efeito);
#X text 109 5 BALTAN (pdp_baltan);
#X obj 63 150 pdp_baltan;
#X floatatom 120 130 10 0 0 0 - - -;
#X msg 120 109 1.65798e+07;
#X obj 120 88 loadbang;
#X connect 0 0 2 0;
#X connect 2 0 1 0;
#X connect 2 1 7 0;
#X connect 3 0 2 1;
#X connect 7 0 1 0;
#X connect 8 0 7 1;
#X connect 9 0 8 0;
#X connect 10 0 9 0;
