#N canvas 798 159 450 428 10;
#X obj 9 10 inlet;
#X obj 9 387 outlet;
#X obj 60 98 inlet;
#X obj 28 233 pdp_mix 0.7;
#X obj 86 149 metro 1000;
#X obj 86 169 pdp_noise;
#X obj 86 189 pdp_zoom 100;
#X obj 60 121 tgl 15 0 empty empty empty 17 7 0 10 -262144 -1 -1 0
1;
#X obj 143 72 inlet;
#X obj 146 135 hsl 50 10 0 1000 0 0 empty empty empty -2 -8 0 10 -262144
-1 -1 0 1;
#X obj 143 93 * 900;
#X obj 143 114 + 100;
#X text 74 9 Manipulações com pdp_noise;
#X text 74 19 Por http://yourmachines.org/tutorials/pdvideolan.hml
;
#X text 74 34 inlets: 1 video (pdp);
#X text 122 44 2 toggle (ativa ou nao o efeito);
#X text 122 54 3 number 0~1 (temporizador do efeito);
#X obj 28 341 pdp_mix 0.95;
#X obj 62 272 pdp_del;
#X text 74 -1 Cool Noise 3;
#X obj 28 210 pdp_gain 5;
#X obj 62 295 pdp_rotate 5;
#X obj 62 318 pdp_zoom 1.1;
#X obj 134 233 hsl 50 10 0 1 0 0 empty empty empty -2 -8 0 10 -262144
-1 -1 0 1;
#X obj 131 249 - 0.5;
#X obj 131 272 * 20;
#X obj 144 209 inlet;
#X obj 191 208 inlet;
#X obj 194 232 hsl 50 10 0 1 0 0 empty empty empty -2 -8 0 10 -262144
-1 -1 0 1;
#X obj 191 271 + 0.8;
#X obj 191 248 / 2.5;
#X obj 9 364 pdp_mix 0;
#X connect 0 0 20 0;
#X connect 0 0 31 0;
#X connect 2 0 7 0;
#X connect 3 0 17 0;
#X connect 4 0 5 0;
#X connect 5 0 6 0;
#X connect 6 0 3 1;
#X connect 7 0 4 0;
#X connect 7 0 31 2;
#X connect 8 0 10 0;
#X connect 9 0 4 1;
#X connect 10 0 11 0;
#X connect 11 0 9 0;
#X connect 17 0 18 0;
#X connect 17 0 31 1;
#X connect 18 0 21 0;
#X connect 20 0 3 0;
#X connect 21 0 22 0;
#X connect 22 0 17 1;
#X connect 23 0 24 0;
#X connect 24 0 25 0;
#X connect 25 0 21 1;
#X connect 26 0 23 0;
#X connect 27 0 28 0;
#X connect 28 0 30 0;
#X connect 29 0 22 1;
#X connect 30 0 29 0;
#X connect 31 0 1 0;
