#N canvas 661 328 450 299 10;
#X obj 6 9 inlet;
#X obj 6 224 outlet;
#X obj 6 79 pdp_spigot;
#X obj 63 45 inlet;
#X text 109 25 inlets: 1 video (pdp);
#X text 157 35 2 toggle (ativa ou nao o efeito);
#X obj 63 150 pdp_dice;
#X text 132 125 Dice size;
#X obj 108 110 hradio 10 1 0 6 empty empty empty 0 -8 0 10 -262144
-1 -1 4;
#X obj 108 129 + 1;
#X obj 108 85 inlet;
#X text 157 45 3 number (tamanho do quadrado);
#X text 109 5 DICE (pdp_dice);
#X connect 0 0 2 0;
#X connect 2 0 1 0;
#X connect 2 1 6 0;
#X connect 3 0 2 1;
#X connect 6 0 1 0;
#X connect 8 0 9 0;
#X connect 9 0 6 1;
#X connect 10 0 8 0;
