#N canvas 661 327 450 300 10;
#X obj 6 9 inlet;
#X obj 6 224 outlet;
#X obj 6 79 pdp_spigot;
#X obj 63 45 inlet;
#X obj 63 150 pdp_disintegration;
#X floatatom 115 106 5 0 0 0 - - -;
#X floatatom 168 106 5 0 0 0 - - -;
#X text 118 118 passes;
#X text 117 128 (3);
#X text 171 119 reduction;
#X text 171 128 (5);
#X obj 115 71 inlet;
#X obj 168 71 inlet;
#X text 109 25 inlets: 1 video (pdp);
#X text 157 35 2 toggle (ativa ou nao o efeito);
#X text 109 5 DISINTEGRATION (pdp_disintegration);
#X text 157 45 3 number (quantidade de passagens);
#X text 157 55 4 number (fator de redução);
#X connect 0 0 2 0;
#X connect 2 0 1 0;
#X connect 2 1 4 0;
#X connect 3 0 2 1;
#X connect 4 0 1 0;
#X connect 5 0 4 1;
#X connect 6 0 4 2;
#X connect 11 0 5 0;
#X connect 12 0 6 0;
