#N canvas 698 342 450 300 10;
#X obj 7 156 pdp_spigot;
#X obj 64 137 tgl 15 0 empty empty empty 17 7 0 10 -262144 -1 -1 0
1;
#X obj 64 181 pdp_dot;
#X floatatom 83 156 5 0 0 0 - - -;
#X floatatom 121 156 5 0 0 0 - - -;
#X obj 102 100 + 1;
#X obj 83 136 * 8;
#X obj 121 136 * 6;
#X obj 7 12 inlet;
#X obj 7 275 outlet;
#X obj 64 53 inlet;
#X obj 102 53 inlet;
#X text 109 25 inlets: 1 video (pdp);
#X text 157 35 2 toggle (ativa ou nao o efeito);
#X text 109 5 DOT (pdp_dot);
#X text 157 45 3 number 0~n (escala das bolinhas);
#X obj 102 77 hradio 15 1 0 8 empty empty empty 0 -8 0 10 -262144 -1
-1 0;
#X connect 0 0 9 0;
#X connect 0 1 2 0;
#X connect 1 0 0 1;
#X connect 2 0 9 0;
#X connect 3 0 2 1;
#X connect 4 0 2 2;
#X connect 5 0 6 0;
#X connect 5 0 7 0;
#X connect 6 0 3 0;
#X connect 7 0 4 0;
#X connect 8 0 0 0;
#X connect 10 0 1 0;
#X connect 11 0 16 0;
#X connect 16 0 5 0;
