#N canvas 775 303 450 375 10;
#X obj 7 137 pdp_spigot;
#X obj 64 118 tgl 15 0 empty empty empty 17 7 0 10 -262144 -1 -1 0
1;
#X obj 64 257 pdp_imgloader;
#X obj 87 135 openpanel;
#X obj 87 118 bng 15 250 50 0 empty empty empty 0 -6 0 8 -262144 -1
-1;
#X obj 92 178 hsl 29 10 0 1 0 0 empty empty empty -2 -8 0 10 -262144
-1 -1 0 1;
#X obj 128 178 hsl 29 10 0 1 0 0 empty empty empty -2 -8 0 10 -262144
-1 -1 0 1;
#X floatatom 89 230 5 0 0 0 - - -;
#X floatatom 116 191 5 0 0 0 - videox -;
#X floatatom 152 191 5 0 0 0 - videoy -;
#X floatatom 125 230 5 0 0 0 - - -;
#X msg 87 154 load \$1 0 0;
#X obj 148 114 * -1;
#X obj 148 134 + 1;
#X obj 7 8 inlet;
#X obj 7 302 outlet;
#X obj 64 51 inlet;
#X obj 87 72 inlet;
#X obj 108 93 inlet;
#X obj 148 93 inlet;
#X obj 187 93 inlet;
#X text 109 25 inlets: 1 video (pdp);
#X text 157 35 2 toggle (ativa ou nao o efeito);
#X text 157 45 3 bang (abrir imagem);
#X text 109 5 IMGLOADER (pdp_imgloader);
#X text 157 55 4 number 0~1 (posição x);
#X text 157 65 5 number 0~1 (posição y);
#X text 157 75 6 number 0~1 (opacidade alpha);
#X obj 165 178 hsl 29 10 0 1 0 0 empty empty empty -2 -8 0 10 -262144
-1 -1 2800 1;
#X obj 89 210 * 320;
#X obj 125 210 * 240;
#X connect 0 0 15 0;
#X connect 0 1 2 0;
#X connect 1 0 0 1;
#X connect 2 0 15 0;
#X connect 3 0 11 0;
#X connect 4 0 3 0;
#X connect 5 0 29 0;
#X connect 6 0 30 0;
#X connect 7 0 2 1;
#X connect 8 0 29 1;
#X connect 9 0 30 1;
#X connect 10 0 2 2;
#X connect 11 0 2 0;
#X connect 12 0 13 0;
#X connect 13 0 6 0;
#X connect 14 0 0 0;
#X connect 16 0 1 0;
#X connect 17 0 4 0;
#X connect 18 0 5 0;
#X connect 19 0 12 0;
#X connect 20 0 28 0;
#X connect 28 0 2 3;
#X connect 29 0 7 0;
#X connect 30 0 10 0;
