#N canvas 0 123 903 568 10;
#X text 0 -21 474R1FX;
#N canvas 0 0 450 300 entrada 0;
#X restore 795 247 pd entrada;
#N canvas 10 49 866 360 saida 0;
#X obj 12 12 cnv 15 221 41 empty empty SAIDADEVIDEO 0 7 1 8 -225280
-1109 0;
#X obj 338 75 inlet;
#X obj 338 141 pdp_glx;
#X msg 424 75 destroy;
#X obj 145 40 tgl 10 0 empty empty Cursor 15 5 1 8 -262144 -1 -1 0
1;
#X msg 480 74 cursor \$1;
#X msg 376 75 create;
#X obj 177 13 bng 10 250 50 0 empty empty Fechar 15 5 1 8 -258699 -1
-1;
#X obj 128 13 bng 10 250 50 0 empty empty Abrir 15 5 1 8 -24198 -1
-1;
#X msg 9 75 dim 160 120;
#X msg 177 75 dim 640 480;
#X msg 93 75 dim 320 240;
#X msg 261 75 fullscreen;
#X obj 13 28 bng 10 250 50 0 empty empty 160x120 15 5 1 8 -262144 -1
-1;
#X obj 78 27 bng 10 250 50 0 empty empty 320x240 15 5 1 8 -262144 -1
-1;
#X obj 145 27 bng 10 250 50 0 empty empty 640x480 15 5 1 8 -262144
-1 -1;
#X obj 13 41 bng 10 250 50 0 empty empty Fullscreen 15 5 1 8 -262144
-1 -1;
#X text 391 135 se nao funcionar \, experimente trocar por;
#X text 392 147 pdp_sdl ou pdp_xv;
#X connect 1 0 2 0;
#X connect 3 0 2 0;
#X connect 4 0 5 0;
#X connect 5 0 2 0;
#X connect 6 0 2 0;
#X connect 7 0 3 0;
#X connect 8 0 6 0;
#X connect 9 0 2 0;
#X connect 10 0 2 0;
#X connect 11 0 2 0;
#X connect 12 0 2 0;
#X connect 13 0 9 0;
#X connect 14 0 11 0;
#X connect 15 0 10 0;
#X connect 16 0 12 0;
#X coords 0 -1 1 1 225 45 2 10 10;
#X restore 243 500 pd saida;
#N canvas 695 326 450 300 ajuda 0;
#X text 12 46 O 474R1FX tem como proposito \, antes de mais nada \,
;
#X text 14 105 Por exemplo: Se voce quiser mixar dois sinais de noise
\,;
#X text 14 118 basta duplicar a caixinha Noise Generator (Ctrl-D) e
;
#X text 157 21 474R1FX: Ajuda;
#X text 14 130 ligar as saidas delas na entrada do Mixer:;
#X text 12 58 simplificar o conceito de remendar (patch).;
#X text 12 70 A ideia do programa eh ligar as caixinhas \, numa especie
;
#X text 13 82 de "patch em alto nivel".;
#X coords 0 -1 1 1 400 200 2 10 10;
#X restore 791 -2 pd ajuda;
#N canvas 558 239 615 453 saidaaudio 0;
#X obj 12 12 cnv 15 196 56 empty empty SAIDADEAUDIO 0 7 1 8 -228992
-66577 0;
#X text 30 33 L;
#X text 184 34 R;
#X obj 59 37 hsl 100 30 0 1 0 0 empty empty empty -2 -8 0 10 -225271
-1 -1 9900 1;
#X obj 17 33 knob 32 32 0 1 0 0 empty empty empty 0 -8 0 8 -262144
-1 -1 3100 1;
#X obj 172 34 knob 32 32 0 1 0 0 empty empty empty 0 -8 0 8 -262144
-1 -1 3100 1;
#X obj 12 142 *~;
#X obj 12 100 inlet~;
#X obj 167 101 inlet~;
#X obj 167 142 *~;
#X obj 78 225 dac~;
#X obj 217 11 loadbang;
#X msg 217 36 1;
#X text 216 54 Sopra o Funk!;
#X obj 12 121 spigot~;
#X obj 167 121 spigot~;
#X obj 114 12 tgl 10 0 empty empty LigaDesliga 15 5 0 8 -258699 -1
-1 0 1;
#X obj 96 97 tgl 15 0 empty empty empty 17 7 0 10 -262144 -1 -1 1 1
;
#X obj 90 77 bng 15 250 50 0 empty empty empty 17 7 0 10 -262144 -1
-1;
#X connect 3 0 4 0;
#X connect 3 0 5 0;
#X connect 4 0 6 1;
#X connect 5 0 9 1;
#X connect 6 0 10 0;
#X connect 7 0 14 0;
#X connect 8 0 15 0;
#X connect 9 0 10 1;
#X connect 11 0 12 0;
#X connect 12 0 3 0;
#X connect 12 0 17 0;
#X connect 14 0 6 0;
#X connect 15 0 9 0;
#X connect 16 0 18 0;
#X connect 17 0 14 1;
#X connect 17 0 15 1;
#X connect 18 0 17 0;
#X coords 0 -1 1 1 200 60 2 10 10;
#X restore 698 364 pd saidaaudio;
#N canvas 532 358 448 300 entradasom 0;
#X obj 113 147 adc~;
#X obj 93 184 outlet~;
#X obj 155 183 outlet~;
#X text 13 9 Entrada;
#X text 18 20 de Som;
#X connect 0 0 1 0;
#X connect 0 1 2 0;
#X coords 0 -1 1 1 60 25 2 10 10;
#X restore 945 299 pd entradasom;
#N canvas 601 128 585 557 netsend 0;
#X obj 88 290 pdp_netsend;
#X msg 88 264 connect \$1 \$2;
#X obj 87 229 pack 0 0;
#X floatatom 13 42 5 0 0 1 Porta - -;
#X msg 290 62 set 9990;
#X msg 303 82 set 9991;
#X msg 316 102 set 9992;
#X msg 329 122 set 9993;
#X msg 342 142 set 9994;
#X msg 355 162 set 9995;
#X msg 368 182 set 9996;
#X msg 381 202 set 9997;
#X msg 394 222 set 9998;
#X msg 407 242 set 9999;
#X obj 13 24 hradio 15 1 0 10 empty empty empty 0 -8 0 10 -241291 -1
-1 0;
#X obj 291 5 select 0 1 2 3 4 5 6 7 8 9;
#X text 12 10 Manda video pela rede;
#X obj 13 149 inlet;
#X obj 87 194 inlet;
#X connect 3 0 2 1;
#X connect 4 0 3 0;
#X connect 5 0 3 0;
#X connect 6 0 3 0;
#X connect 7 0 3 0;
#X connect 8 0 3 0;
#X connect 9 0 3 0;
#X connect 10 0 3 0;
#X connect 11 0 3 0;
#X connect 12 0 3 0;
#X connect 13 0 3 0;
#X connect 14 0 15 0;
#X connect 15 0 4 0;
#X connect 15 1 5 0;
#X connect 15 2 6 0;
#X connect 15 3 7 0;
#X connect 15 4 8 0;
#X connect 15 5 9 0;
#X connect 15 6 10 0;
#X connect 15 7 11 0;
#X connect 15 8 12 0;
#X connect 15 9 13 0;
#X connect 17 0 0 0;
#X connect 18 0 2 0;
#X restore 798 279 pd netsend;
#N canvas 384 324 511 300 tecladinho-----------------------------------------------
0;
#X obj 2 4 key;
#X floatatom 2 25 3 0 0 0 - - -;
#X obj 22 90 outlet;
#X obj 34 111 outlet;
#X obj 48 132 outlet;
#X obj 61 153 outlet;
#X obj 74 90 outlet;
#X obj 86 111 outlet;
#X obj 100 132 outlet;
#X obj 114 153 outlet;
#X obj 127 90 outlet;
#X obj 139 111 outlet;
#X obj 153 132 outlet;
#X obj 166 153 outlet;
#X obj 179 90 outlet;
#X obj 193 111 outlet;
#X obj 206 132 outlet;
#X obj 219 153 outlet;
#X obj 232 90 outlet;
#X obj 244 111 outlet;
#X obj 258 132 outlet;
#X obj 271 153 outlet;
#X obj 285 90 outlet;
#X obj 297 111 outlet;
#X obj 311 132 outlet;
#X obj 325 153 outlet;
#X obj 337 89 outlet;
#X obj 350 110 outlet;
#X obj 364 131 outlet;
#X obj 376 152 outlet;
#X text 30 199 Tecladinho;
#X obj 22 41 sel 113 119 101 114 116 121 117 105 111 112 91 93 97 115
100 102 103 104 106 107 108 122 120 99 118 98 110 109;
#X text 30 213 q w e r t y u i o p [ ] a s d f g h j k l z x c v b
n m;
#X connect 0 0 1 0;
#X connect 0 0 31 0;
#X connect 31 0 2 0;
#X connect 31 1 3 0;
#X connect 31 2 4 0;
#X connect 31 3 5 0;
#X connect 31 4 6 0;
#X connect 31 5 7 0;
#X connect 31 6 8 0;
#X connect 31 7 9 0;
#X connect 31 8 10 0;
#X connect 31 9 11 0;
#X connect 31 10 12 0;
#X connect 31 11 13 0;
#X connect 31 12 14 0;
#X connect 31 13 15 0;
#X connect 31 14 16 0;
#X connect 31 15 17 0;
#X connect 31 16 18 0;
#X connect 31 17 19 0;
#X connect 31 18 20 0;
#X connect 31 19 21 0;
#X connect 31 20 22 0;
#X connect 31 21 23 0;
#X connect 31 22 24 0;
#X connect 31 23 25 0;
#X connect 31 24 26 0;
#X connect 31 25 27 0;
#X connect 31 26 28 0;
#X connect 31 27 29 0;
#X coords 0 0 1 1 388 30 2 30 200;
#X restore 820 442 pd tecladinho-----------------------------------------------
;
#N canvas 336 135 753 639 playerogg 0;
#X obj 19 506 oggread~;
#X obj 19 541 outlet~;
#X obj 35 564 outlet~;
#X obj 19 157 bng 10 250 50 0 empty empty Abrir 15 5 1 8 -262144 -1
-1;
#X obj 19 180 openpanel;
#X msg 19 209 open \$1;
#X floatatom 116 586 7 0 0 0 - - -;
#X obj 63 435 bng 10 250 50 0 empty empty Tocar 15 5 1 8 -262144 -1
-1;
#X msg 57 451 start;
#X msg 142 448 seek \$1;
#X obj 123 358 spigot;
#X obj 170 338 tgl 10 0 empty empty Loop 15 5 1 8 -262144 -1 -1 0 1
;
#X msg 29 407 stop;
#X obj 193 519 min;
#X msg 168 477 1e+06;
#X floatatom 193 544 5 0 0 0 - - -;
#X obj 44 314 spigot;
#X obj 59 282 tgl 10 0 empty empty AutoPlay 15 5 1 8 -262144 -1 -1
0 1;
#X obj 17 3 bng 10 250 50 0 empty empty Abrir 15 5 1 8 -262144 -1 -1
;
#X obj 17 19 tgl 10 0 empty empty TocarAoAbrir 15 5 1 8 -262144 -1
-1 0 1;
#X obj 63 3 bng 10 250 50 0 empty empty Tocar 15 5 1 8 -262144 -1 -1
;
#X obj 29 391 bng 10 250 50 0 empty empty Parar 15 5 1 8 -262144 -1
-1;
#X obj 116 3 bng 10 250 50 0 empty empty Parar 15 5 1 8 -262144 -1
-1;
#X text 17 -12 PLAYER OGG (MUSICA);
#X obj 170 3 tgl 10 0 empty empty RepetirNoFim 15 5 1 8 -262144 -1
-1 0 1;
#X floatatom 116 16 7 0 0 1 pos - -;
#X text 6 108 estrutura basica;
#X text 21 133 do oggread~;
#X text 11 120 igualzinha a ajuda;
#X text 12 581 saidas de som;
#X text 100 599 posicao em s;
#X obj 82 535 bng 10 250 50 0 empty empty empty 17 7 0 10 -262144 -1
-1;
#X text 98 532 <- indica;
#X text 98 543 que acabou;
#X text 98 554 o arquivo;
#X text 8 236 se ativado \, da bang;
#X text 8 246 em tocar assim que fecha;
#X text 8 256 a janela de escolha de arquivo;
#X text 171 350 se ativado \, da bang;
#X text 171 361 em tocar assim que;
#X text 171 373 termina o arquivo;
#N canvas 311 258 449 417 loopplayerogg 0;
#X obj 123 166 *;
#X obj 126 124 hsl 64 10 0 1 0 0 empty empty empty -2 -8 0 10 -262144
-1 -1 0 1;
#X floatatom 111 197 5 0 0 0 - - -;
#X obj 111 124 bng 10 250 50 0 empty empty empty 17 7 0 10 -262144
-1 -1;
#X floatatom 145 146 5 0 0 0 - - -;
#X obj 119 77 spigot;
#X obj 119 63 tgl 10 0 empty empty Loop 15 5 1 8 -262144 -1 -1 0 1
;
#X obj 192 42 hsl 32 10 0 2.9 0 0 empty empty empty -2 -8 0 10 -262144
-1 -1 3100 1;
#X obj 119 98 delay 500;
#X obj 181 77 * 1000;
#X obj 185 56 + 0.01;
#X obj 119 43 inlet;
#X obj 206 119 inlet;
#X obj 111 215 outlet;
#X obj 27 15 hsl 48 10 0 1 0 0 empty empty empty -2 -8 0 10 -262144
-1 -1 0 1;
#X obj 82 15 hsl 32 10 0 2.99 0 0 empty empty empty -2 -8 0 10 -262144
-1 -1 3100 1;
#X text 232 52 Loop minimo de 1ms;
#X text 232 63 para nao travar o PC;
#X obj 12 15 bng 10 250 50 0 empty empty empty 17 7 0 10 -262144 -1
-1;
#X obj 118 15 tgl 10 0 empty empty empty 15 5 1 8 -262144 -1 -1 0 1
;
#X msg 174 13 2.99;
#X obj 214 13 loadbang;
#X obj 12 51 inlet;
#X text 15 91 pula para;
#X text 14 104 o ponto de;
#X text 30 116 loop;
#X connect 0 0 2 0;
#X connect 1 0 0 0;
#X connect 2 0 13 0;
#X connect 3 0 2 0;
#X connect 3 0 5 0;
#X connect 4 0 0 1;
#X connect 5 0 8 0;
#X connect 6 0 5 1;
#X connect 7 0 10 0;
#X connect 8 0 3 0;
#X connect 9 0 8 1;
#X connect 10 0 9 0;
#X connect 11 0 6 0;
#X connect 11 0 19 0;
#X connect 12 0 4 0;
#X connect 14 0 1 0;
#X connect 15 0 7 0;
#X connect 18 0 3 0;
#X connect 19 0 6 0;
#X connect 20 0 15 0;
#X connect 21 0 20 0;
#X connect 22 0 18 0;
#X coords 0 -1 1 1 120 20 2 10 10;
#X restore 18 62 pd loopplayerogg;
#X floatatom 193 16 5 0 0 1 total - -;
#X text 194 561 detecta o tamanho do arquivo;
#X text 195 573 no fim da reproducao deste;
#X text 194 584 se voce souber o tamanho;
#X text 194 595 (veja no terminal) coloque;
#N canvas 311 258 449 417 loopplayerogg 0;
#X obj 123 166 *;
#X obj 126 124 hsl 64 10 0 1 0 0 empty empty empty -2 -8 0 10 -262144
-1 -1 0 1;
#X floatatom 111 197 5 0 0 0 - - -;
#X obj 111 124 bng 10 250 50 0 empty empty empty 17 7 0 10 -262144
-1 -1;
#X floatatom 145 146 5 0 0 0 - - -;
#X obj 119 77 spigot;
#X obj 119 63 tgl 10 0 empty empty Loop 15 5 1 8 -262144 -1 -1 0 1
;
#X obj 192 42 hsl 32 10 0 2.9 0 0 empty empty empty -2 -8 0 10 -262144
-1 -1 3100 1;
#X obj 119 98 delay 500;
#X obj 181 77 * 1000;
#X obj 185 56 + 0.01;
#X obj 119 43 inlet;
#X obj 206 119 inlet;
#X obj 111 215 outlet;
#X obj 27 15 hsl 48 10 0 1 0 0 empty empty empty -2 -8 0 10 -262144
-1 -1 0 1;
#X obj 82 15 hsl 32 10 0 2.99 0 0 empty empty empty -2 -8 0 10 -262144
-1 -1 3100 1;
#X text 232 52 Loop minimo de 1ms;
#X text 232 63 para nao travar o PC;
#X obj 12 15 bng 10 250 50 0 empty empty empty 17 7 0 10 -262144 -1
-1;
#X obj 118 15 tgl 10 0 empty empty empty 15 5 1 8 -262144 -1 -1 0 1
;
#X msg 174 13 2.99;
#X obj 214 13 loadbang;
#X obj 12 51 inlet;
#X text 15 91 pula para;
#X text 14 104 o ponto de;
#X text 30 116 loop;
#X connect 0 0 2 0;
#X connect 1 0 0 0;
#X connect 2 0 13 0;
#X connect 3 0 2 0;
#X connect 3 0 5 0;
#X connect 4 0 0 1;
#X connect 5 0 8 0;
#X connect 6 0 5 1;
#X connect 7 0 10 0;
#X connect 8 0 3 0;
#X connect 9 0 8 1;
#X connect 10 0 9 0;
#X connect 11 0 6 0;
#X connect 11 0 19 0;
#X connect 12 0 4 0;
#X connect 14 0 1 0;
#X connect 15 0 7 0;
#X connect 18 0 3 0;
#X connect 19 0 6 0;
#X connect 20 0 15 0;
#X connect 21 0 20 0;
#X connect 22 0 18 0;
#X coords 0 -1 1 1 120 20 2 10 10;
#X restore 140 62 pd loopplayerogg;
#N canvas 311 258 449 417 loopplayerogg 0;
#X obj 123 166 *;
#X obj 126 124 hsl 64 10 0 1 0 0 empty empty empty -2 -8 0 10 -262144
-1 -1 0 1;
#X floatatom 111 197 5 0 0 0 - - -;
#X obj 111 124 bng 10 250 50 0 empty empty empty 17 7 0 10 -262144
-1 -1;
#X floatatom 145 146 5 0 0 0 - - -;
#X obj 119 77 spigot;
#X obj 119 63 tgl 10 0 empty empty Loop 15 5 1 8 -262144 -1 -1 0 1
;
#X obj 192 42 hsl 32 10 0 2.9 0 0 empty empty empty -2 -8 0 10 -262144
-1 -1 3100 1;
#X obj 119 98 delay 500;
#X obj 181 77 * 1000;
#X obj 185 56 + 0.01;
#X obj 119 43 inlet;
#X obj 206 119 inlet;
#X obj 111 215 outlet;
#X obj 27 15 hsl 48 10 0 1 0 0 empty empty empty -2 -8 0 10 -262144
-1 -1 0 1;
#X obj 82 15 hsl 32 10 0 2.99 0 0 empty empty empty -2 -8 0 10 -262144
-1 -1 3100 1;
#X text 232 52 Loop minimo de 1ms;
#X text 232 63 para nao travar o PC;
#X obj 12 15 bng 10 250 50 0 empty empty empty 17 7 0 10 -262144 -1
-1;
#X obj 118 15 tgl 10 0 empty empty empty 15 5 1 8 -262144 -1 -1 0 1
;
#X msg 174 13 2.99;
#X obj 214 13 loadbang;
#X obj 12 51 inlet;
#X text 15 91 pula para;
#X text 14 104 o ponto de;
#X text 30 116 loop;
#X connect 0 0 2 0;
#X connect 1 0 0 0;
#X connect 2 0 13 0;
#X connect 3 0 2 0;
#X connect 3 0 5 0;
#X connect 4 0 0 1;
#X connect 5 0 8 0;
#X connect 6 0 5 1;
#X connect 7 0 10 0;
#X connect 8 0 3 0;
#X connect 9 0 8 1;
#X connect 10 0 9 0;
#X connect 11 0 6 0;
#X connect 11 0 19 0;
#X connect 12 0 4 0;
#X connect 14 0 1 0;
#X connect 15 0 7 0;
#X connect 18 0 3 0;
#X connect 19 0 6 0;
#X connect 20 0 15 0;
#X connect 21 0 20 0;
#X connect 22 0 18 0;
#X coords 0 -1 1 1 120 20 2 10 10;
#X restore 18 84 pd loopplayerogg;
#N canvas 311 258 449 417 loopplayerogg 0;
#X obj 123 166 *;
#X obj 126 124 hsl 64 10 0 1 0 0 empty empty empty -2 -8 0 10 -262144
-1 -1 0 1;
#X floatatom 111 197 5 0 0 0 - - -;
#X obj 111 124 bng 10 250 50 0 empty empty empty 17 7 0 10 -262144
-1 -1;
#X floatatom 145 146 5 0 0 0 - - -;
#X obj 119 77 spigot;
#X obj 119 63 tgl 10 0 empty empty Loop 15 5 1 8 -262144 -1 -1 0 1
;
#X obj 192 42 hsl 32 10 0 2.9 0 0 empty empty empty -2 -8 0 10 -262144
-1 -1 3100 1;
#X obj 119 98 delay 500;
#X obj 181 77 * 1000;
#X obj 185 56 + 0.01;
#X obj 119 43 inlet;
#X obj 206 119 inlet;
#X obj 111 215 outlet;
#X obj 27 15 hsl 48 10 0 1 0 0 empty empty empty -2 -8 0 10 -262144
-1 -1 0 1;
#X obj 82 15 hsl 32 10 0 2.99 0 0 empty empty empty -2 -8 0 10 -262144
-1 -1 3100 1;
#X text 232 52 Loop minimo de 1ms;
#X text 232 63 para nao travar o PC;
#X obj 12 15 bng 10 250 50 0 empty empty empty 17 7 0 10 -262144 -1
-1;
#X obj 118 15 tgl 10 0 empty empty empty 15 5 1 8 -262144 -1 -1 0 1
;
#X msg 174 13 2.99;
#X obj 214 13 loadbang;
#X obj 12 51 inlet;
#X text 15 91 pula para;
#X text 14 104 o ponto de;
#X text 30 116 loop;
#X connect 0 0 2 0;
#X connect 1 0 0 0;
#X connect 2 0 13 0;
#X connect 3 0 2 0;
#X connect 3 0 5 0;
#X connect 4 0 0 1;
#X connect 5 0 8 0;
#X connect 6 0 5 1;
#X connect 7 0 10 0;
#X connect 8 0 3 0;
#X connect 9 0 8 1;
#X connect 10 0 9 0;
#X connect 11 0 6 0;
#X connect 11 0 19 0;
#X connect 12 0 4 0;
#X connect 14 0 1 0;
#X connect 15 0 7 0;
#X connect 18 0 3 0;
#X connect 19 0 6 0;
#X connect 20 0 15 0;
#X connect 21 0 20 0;
#X connect 22 0 18 0;
#X coords 0 -1 1 1 120 20 2 10 10;
#X restore 140 84 pd loopplayerogg;
#X text 16 48 Loops:;
#X obj 281 31 inlet;
#X obj 291 41 inlet;
#X obj 332 31 inlet;
#X obj 342 41 inlet;
#X obj 385 31 inlet;
#X obj 395 41 inlet;
#X obj 436 31 inlet;
#X obj 446 41 inlet;
#X obj 47 34 hsl 175 15 0 1 0 0 empty empty empty -2 -8 0 10 -1 -233017
-1 0 1;
#X obj 276 4 /;
#X text 306 -12 pos/tot da numero de 0 a 1 que indica a posicao;
#X connect 0 0 1 0;
#X connect 0 1 2 0;
#X connect 0 2 6 0;
#X connect 0 3 14 0;
#X connect 0 3 31 0;
#X connect 3 0 4 0;
#X connect 4 0 5 0;
#X connect 5 0 0 0;
#X connect 5 0 16 0;
#X connect 6 0 13 1;
#X connect 6 0 25 0;
#X connect 7 0 8 0;
#X connect 8 0 0 0;
#X connect 9 0 0 0;
#X connect 10 0 7 0;
#X connect 11 0 10 1;
#X connect 12 0 0 0;
#X connect 13 0 15 0;
#X connect 14 0 13 0;
#X connect 15 0 42 0;
#X connect 16 0 7 0;
#X connect 17 0 16 1;
#X connect 18 0 3 0;
#X connect 19 0 17 0;
#X connect 20 0 7 0;
#X connect 21 0 12 0;
#X connect 22 0 21 0;
#X connect 24 0 11 0;
#X connect 25 0 60 0;
#X connect 31 0 10 0;
#X connect 41 0 9 0;
#X connect 42 0 41 2;
#X connect 42 0 48 2;
#X connect 42 0 47 2;
#X connect 42 0 49 2;
#X connect 42 0 60 1;
#X connect 47 0 9 0;
#X connect 48 0 9 0;
#X connect 49 0 9 0;
#X connect 51 0 41 0;
#X connect 52 0 41 1;
#X connect 53 0 47 0;
#X connect 54 0 47 1;
#X connect 55 0 48 0;
#X connect 56 0 48 1;
#X connect 57 0 49 0;
#X connect 58 0 49 1;
#X connect 60 0 59 0;
#X coords 0 -1 1 1 255 120 2 12 -12;
#X restore 819 487 pd playerogg;
#X text 789 201 Repositorio de Elementos: (duplique \, arraste \, ligue
\, pire!);
#N canvas 479 162 306 423 mixerdeaudio 0;
#X obj 46 50 cnv 15 171 46 empty empty AUDIOMIXER 2 7 1 8 -241320 -66577
0;
#X obj 149 84 hsl 64 10 0 2 0 0 empty empty empty -2 -8 0 10 -241291
-258699 -1 3150 1;
#X obj 64 197 inlet~;
#X obj 108 197 inlet~;
#X obj 188 197 inlet~;
#X obj 232 197 inlet~;
#X obj 51 63 hsl 162 15 0 2 0 0 empty empty empty -2 -8 0 10 -260818
-258699 -1 8050 1;
#X obj 48 7 loadbang;
#X msg 48 28 1;
#X floatatom 238 78 5 0 0 0 - - -;
#X obj 51 84 hsl 64 10 0 2 0 0 empty empty empty -2 -8 0 10 -241291
-258699 -1 3150 1;
#X floatatom 75 152 5 0 0 0 - - -;
#X obj 28 114 - 2;
#X obj 28 135 max -1;
#X obj 125 114 min 1;
#X floatatom 168 131 5 0 0 0 - - -;
#X obj 47 231 *~;
#X obj 91 231 *~;
#X obj 170 232 *~;
#X obj 212 234 *~;
#X obj 75 276 outlet~;
#X obj 189 274 outlet~;
#X text 120 82 L R;
#X obj 178 50 bng 10 250 50 0 empty empty Zera 12 6 1 8 -258699 -241291
-128992;
#X obj 241 145 spigot~;
#X connect 1 0 14 0;
#X connect 2 0 16 0;
#X connect 3 0 17 0;
#X connect 4 0 18 0;
#X connect 5 0 19 0;
#X connect 6 0 1 0;
#X connect 6 0 9 0;
#X connect 6 0 10 0;
#X connect 7 0 23 0;
#X connect 8 0 6 0;
#X connect 10 0 12 0;
#X connect 12 0 13 0;
#X connect 13 0 11 0;
#X connect 13 0 16 1;
#X connect 13 0 17 1;
#X connect 14 0 15 0;
#X connect 14 0 18 1;
#X connect 14 0 19 1;
#X connect 16 0 20 0;
#X connect 17 0 21 0;
#X connect 18 0 20 0;
#X connect 19 0 21 0;
#X connect 23 0 8 0;
#X coords 0 -1 1 1 175 50 2 44 48;
#X restore 710 302 pd mixerdeaudio;
#X obj 491 -11 interfaces;
#X obj 101 229 effectbox;
#X obj 1 49 noisegenerator;
#X obj 15 104 webcam;
#X obj 216 58 playerdevideo;
#X obj 1 -2 controledevelocidadedosvideos;
#X obj 436 378 videomixer;
#X connect 12 0 2 0;
