#N canvas 88 163 484 453 10;
#X text 0 -21 474R1FX;
#N canvas 408 154 755 382 controle 0;
#X text 11 10 Controle;
#X floatatom 299 284 5 0 0 1 ms - -;
#X obj 301 245 /;
#X floatatom 244 185 5 0 0 0 - - -;
#X obj 294 95 loadbang;
#X msg 279 134 set 1000;
#X floatatom 389 165 5 0 0 1 fps - -;
#X msg 294 203 1000;
#X obj 361 96 bng 15 250 50 0 empty empty empty 17 7 0 10 -262144 -1
-1;
#X floatatom 133 10 5 0 0 1 ms - -;
#X floatatom 71 10 5 0 0 1 fps - -;
#X text 70 23 Velocidade do video;
#X obj 55 102 outlet;
#X msg 395 126 set 25;
#X msg 419 190 set 40;
#X msg 454 125 set 29.97;
#X msg 484 191 set 33.38;
#X obj 415 95 bng 15 250 50 0 empty empty PAL 17 7 0 10 -262144 -1
-1;
#X obj 476 96 bng 15 250 50 0 empty empty NTSC 17 7 0 10 -262144 -1
-1;
#X obj 550 96 bng 15 250 50 0 empty empty WEB 17 7 0 10 -262144 -1
-1;
#X msg 546 125 set 15;
#X msg 564 189 set 76.92;
#X obj 190 12 bng 10 250 50 0 empty empty PAL 15 5 1 8 -262131 -1 -1
;
#X obj 230 12 bng 10 250 50 0 empty empty NTSC 15 5 1 8 -225271 -1
-1;
#X obj 282 12 bng 10 250 50 0 empty empty WEB 15 5 0 8 -225280 -1 -1
;
#X text 9 347 1000/fps = ms (Exemplo: 25 frames por segundo (PAL) =
40 milisegundos por frame;
#X obj 674 94 bng 15 250 50 0 empty empty Lento 17 7 0 10 -262144 -1
-1;
#X msg 675 124 set 2;
#X obj 596 97 bng 15 250 50 0 empty empty Rapidao 17 7 0 10 -262144
-1 -1;
#X obj 321 12 bng 10 250 50 0 empty empty Rapido 15 5 0 8 -228992 -1
-1;
#X obj 382 12 bng 10 250 50 0 empty empty Lento 15 5 0 8 -257472 -1
-1;
#X msg 597 127 set 75;
#X msg 588 221 set 13.33;
#X msg 614 252 set 500;
#X obj 40 70 r metro;
#X text 8 143 Essa bagunca serve unicamente;
#X text 12 156 para gerar um numero que sera;
#X text 8 169 utilizado por todos os objetos;
#X text 10 180 de video \, que eh a frequencia;
#X text 11 191 com que os quadros sao tocados.;
#X obj 55 45 inlet;
#X obj 219 25 hsl 225 10 0 100 0 0 empty empty empty -2 -8 0 10 -24198
-1 -1 5600 1;
#X text 13 212 Parece bem dificil \, mas nao eh \,;
#X text 14 224 so tem tantos fios por causa da;
#X text 11 234 caixinha. Tente fazer voce mesmo;
#X text 16 246 do zero!;
#X connect 1 0 9 0;
#X connect 2 0 1 0;
#X connect 3 0 2 0;
#X connect 4 0 5 0;
#X connect 4 0 7 0;
#X connect 4 0 13 0;
#X connect 4 0 14 0;
#X connect 5 0 3 0;
#X connect 5 0 7 0;
#X connect 6 0 2 1;
#X connect 6 0 7 0;
#X connect 6 0 10 0;
#X connect 7 0 2 0;
#X connect 8 0 5 0;
#X connect 8 0 7 0;
#X connect 8 0 13 0;
#X connect 8 0 14 0;
#X connect 9 0 12 0;
#X connect 10 0 7 0;
#X connect 10 0 2 1;
#X connect 13 0 6 0;
#X connect 13 0 10 0;
#X connect 13 0 41 0;
#X connect 14 0 1 0;
#X connect 14 0 9 0;
#X connect 15 0 6 0;
#X connect 15 0 10 0;
#X connect 15 0 41 0;
#X connect 16 0 1 0;
#X connect 16 0 9 0;
#X connect 17 0 13 0;
#X connect 17 0 14 0;
#X connect 18 0 15 0;
#X connect 18 0 16 0;
#X connect 19 0 20 0;
#X connect 19 0 21 0;
#X connect 20 0 10 0;
#X connect 20 0 6 0;
#X connect 20 0 41 0;
#X connect 21 0 9 0;
#X connect 21 0 1 0;
#X connect 22 0 17 0;
#X connect 23 0 18 0;
#X connect 24 0 19 0;
#X connect 26 0 27 0;
#X connect 26 0 33 0;
#X connect 27 0 6 0;
#X connect 27 0 10 0;
#X connect 27 0 41 0;
#X connect 28 0 31 0;
#X connect 28 0 32 0;
#X connect 29 0 28 0;
#X connect 30 0 26 0;
#X connect 31 0 6 0;
#X connect 31 0 10 0;
#X connect 31 0 41 0;
#X connect 32 0 1 0;
#X connect 32 0 9 0;
#X connect 33 0 1 0;
#X connect 33 0 9 0;
#X connect 34 0 12 0;
#X connect 40 0 12 0;
#X connect 41 0 10 0;
#X coords 0 -1 1 1 450 28 2 10 10;
#X restore 1 -6 pd controle;
#N canvas 0 0 450 300 entrada 0;
#X restore 798 343 pd entrada;
#N canvas 5 22 866 360 saida 0;
#X obj 12 12 cnv 15 221 41 empty empty SAIDADEVIDEO 0 7 1 8 -225280
-1109 0;
#X obj 338 75 inlet;
#X obj 338 141 pdp_glx;
#X msg 424 75 destroy;
#X obj 145 40 tgl 10 0 empty empty Cursor 15 5 1 8 -262144 -1 -1 1
1;
#X msg 480 74 cursor \$1;
#X msg 376 75 create;
#X obj 177 13 bng 10 250 50 0 empty empty Fechar 15 5 1 8 -258699 -1
-1;
#X obj 128 13 bng 10 250 50 0 empty empty Abrir 15 5 1 8 -24198 -1
-1;
#X msg 9 75 dim 160 120;
#X msg 177 75 dim 640 480;
#X msg 93 75 dim 320 240;
#X msg 261 75 fullscreen;
#X obj 13 28 bng 10 250 50 0 empty empty 160x120 15 5 1 8 -262144 -1
-1;
#X obj 78 27 bng 10 250 50 0 empty empty 320x240 15 5 1 8 -262144 -1
-1;
#X obj 145 27 bng 10 250 50 0 empty empty 640x480 15 5 1 8 -262144
-1 -1;
#X obj 13 41 bng 10 250 50 0 empty empty Fullscreen 15 5 1 8 -262144
-1 -1;
#X text 391 135 se nao funcionar \, experimente trocar por;
#X text 392 147 pdp_sdl ou pdp_xv;
#X connect 1 0 2 0;
#X connect 3 0 2 0;
#X connect 4 0 5 0;
#X connect 5 0 2 0;
#X connect 6 0 2 0;
#X connect 7 0 3 0;
#X connect 8 0 6 0;
#X connect 9 0 2 0;
#X connect 10 0 2 0;
#X connect 11 0 2 0;
#X connect 12 0 2 0;
#X connect 13 0 9 0;
#X connect 14 0 11 0;
#X connect 15 0 10 0;
#X connect 16 0 12 0;
#X coords 0 -1 1 1 225 45 2 10 10;
#X restore 1 370 pd saida;
#N canvas 564 296 450 300 noise 0;
#X obj 114 138 inlet;
#X obj 14 250 outlet;
#X obj 14 219 pdp_noise;
#X obj 14 189 metro 40;
#X msg 75 112 type yv12;
#X msg 133 79 type grey;
#X obj 13 13 cnv 15 120 41 empty empty NOISEGENERATOR 0 8 1 8 -241291
-258699 0;
#X obj 78 27 bng 10 250 50 0 empty empty Bate 15 5 1 8 -260818 -1 -1
;
#X obj 14 27 tgl 10 0 empty empty Ativa 15 5 1 8 -24198 -1 -1 1 1;
#X obj 14 41 bng 10 250 50 0 empty empty Colorido 15 5 1 8 -44926 -1
-1;
#X obj 78 41 bng 10 250 50 0 empty empty PB 15 5 1 8 -166441 -1 -1
;
#X connect 0 0 3 1;
#X connect 2 0 1 0;
#X connect 3 0 2 0;
#X connect 4 0 2 0;
#X connect 5 0 2 0;
#X connect 7 0 2 0;
#X connect 8 0 3 0;
#X connect 9 0 4 0;
#X connect 10 0 5 0;
#X coords 0 -1 1 1 126 47 2 10 10;
#X restore 1 40 pd noise;
#N canvas 739 117 518 469 webcam 0;
#X obj 12 12 cnv 10 146 41 empty empty WEBCAM 2 7 1 8 -143330 -42246
0;
#X obj 13 320 pdp_v4l;
#X obj 61 26 bng 10 250 50 0 empty empty Bate 15 5 1 8 -260818 -1 -1
;
#X obj 13 26 tgl 10 0 empty empty Ativa 15 5 1 8 -24198 -1 -1 1 1;
#X obj 13 126 metro 40;
#X obj 64 104 inlet;
#X obj 13 343 outlet;
#X obj 95 13 hradio 10 1 0 4 empty empty empty 0 -8 0 10 -241291 -1
-1 0;
#X obj 123 113 sel 0 1 2 3;
#X msg 73 151 close;
#X msg 123 151 open /dev/video0;
#X msg 141 168 open /dev/video1;
#X obj 105 26 bng 10 250 50 0 empty empty Fecha 15 5 1 8 -258699 -1
-1;
#X msg 26 173 type yv12;
#X msg 43 199 type grey;
#X obj 13 40 bng 10 250 50 0 empty empty Colorido 15 5 1 8 -44926 -1
-1;
#X obj 77 40 bng 10 250 50 0 empty empty PB 15 5 1 8 -166441 -1 -1
;
#X msg 159 185 open /dev/video2;
#X msg 177 202 open /dev/video3;
#X connect 1 0 6 0;
#X connect 2 0 1 0;
#X connect 3 0 4 0;
#X connect 4 0 1 0;
#X connect 5 0 4 1;
#X connect 7 0 8 0;
#X connect 8 0 10 0;
#X connect 8 1 11 0;
#X connect 8 2 17 0;
#X connect 8 3 18 0;
#X connect 9 0 1 0;
#X connect 10 0 1 0;
#X connect 11 0 1 0;
#X connect 12 0 9 0;
#X connect 13 0 1 0;
#X connect 14 0 1 0;
#X connect 15 0 13 0;
#X connect 16 0 14 0;
#X connect 17 0 1 0;
#X connect 18 0 1 0;
#X coords 0 -1 1 1 150 45 2 10 10;
#X restore 18 100 pd webcam;
#N canvas 695 326 450 300 ajuda 0;
#X text 12 46 O 474R1FX tem como proposito \, antes de mais nada \,
;
#X text 14 105 Por exemplo: Se voce quiser mixar dois sinais de noise
\,;
#X text 14 118 basta duplicar a caixinha Noise Generator (Ctrl-D) e
;
#X text 157 21 474R1FX: Ajuda;
#X text 14 130 ligar as saidas delas na entrada do Mixer:;
#X text 12 58 simplificar o conceito de remendar (patch).;
#X text 12 70 A ideia do programa eh ligar as caixinhas \, numa especie
;
#X text 13 82 de "patch em alto nivel".;
#X coords 0 -1 1 1 400 200 2 10 10;
#X restore 791 -2 pd ajuda;
#N canvas 318 316 450 334 player 0;
#X obj 12 2 cnv 15 146 106 empty empty PLAYERDEVIDEO 0 7 1 8 -44926
-355 0;
#X obj 81 28 bng 10 250 50 0 empty empty AbrirVideo 15 5 1 8 -250685
-1 -1;
#X obj 102 129 openpanel;
#X msg 102 149 open \$1;
#X obj 14 163 metro 40;
#X obj 25 133 inlet;
#X obj 93 246 outlet;
#X obj 62 41 bng 10 250 50 0 empty empty Bate 15 5 1 8 -260818 -1 -1
;
#X obj 14 41 tgl 10 0 empty empty Ativa 15 5 1 8 -24198 -1 -1 0 1;
#X obj 106 41 bng 10 250 50 0 empty empty Fecha 15 5 1 8 -258699 -1
-1;
#X msg 201 142 close;
#X floatatom 82 67 4 0 0 0 Frames - -;
#X floatatom 127 67 4 0 0 0 / - -;
#X obj 93 221 pdp_yqt --------;
#X obj 177 246 outlet~;
#X obj 201 263 outlet~;
#X obj 14 54 tgl 10 0 empty empty Loop 15 5 1 8 -241291 -1 -1 0 1;
#X msg -18 189 loop \$1;
#X obj 62 54 bng 10 250 50 0 empty empty Play 15 5 1 8 -261689 -1 -1
;
#X obj 106 54 bng 10 250 50 0 empty empty Stop 15 5 1 8 -261681 -1
-1;
#X msg 154 181 play;
#X msg 201 181 stop;
#X text 23 25 PLAYER;
#X text 60 80 saidas;
#X text 11 94 video;
#X text 61 94 audioL;
#X text 115 94 audioR;
#X text 12 12 controle;
#X text 120 0 frame;
#X text 123 11 (pos);
#X obj 200 101 inlet;
#X connect 1 0 2 0;
#X connect 2 0 3 0;
#X connect 3 0 13 0;
#X connect 4 0 13 0;
#X connect 5 0 4 1;
#X connect 7 0 13 0;
#X connect 8 0 4 0;
#X connect 9 0 10 0;
#X connect 10 0 13 0;
#X connect 13 0 6 0;
#X connect 13 1 11 0;
#X connect 13 2 12 0;
#X connect 13 4 14 0;
#X connect 13 5 15 0;
#X connect 16 0 17 0;
#X connect 17 0 13 0;
#X connect 18 0 20 0;
#X connect 19 0 21 0;
#X connect 20 0 13 0;
#X connect 21 0 13 0;
#X connect 30 0 13 1;
#X coords 0 -1 1 1 150 110 2 10 0;
#X restore 172 37 pd player;
#N canvas 558 239 615 453 saidaaudio 0;
#X obj 12 12 cnv 15 196 56 empty empty SAIDADEAUDIO 0 7 1 8 -228992
-66577 0;
#X text 30 33 L;
#X text 184 34 R;
#X obj 59 37 hsl 100 30 0 1 0 0 empty empty empty -2 -8 0 10 -225271
-1 -1 9900 1;
#X obj 17 33 knob 32 32 0 1 0 0 empty empty empty 0 -8 0 8 -262144
-1 -1 3100 1;
#X obj 172 34 knob 32 32 0 1 0 0 empty empty empty 0 -8 0 8 -262144
-1 -1 3100 1;
#X obj 12 142 *~;
#X obj 12 100 inlet~;
#X obj 167 101 inlet~;
#X obj 167 142 *~;
#X obj 78 225 dac~;
#X obj 217 11 loadbang;
#X msg 217 36 1;
#X text 216 54 Sopra o Funk!;
#X obj 12 121 spigot~;
#X obj 167 121 spigot~;
#X obj 114 12 tgl 10 0 empty empty LigaDesliga 15 5 0 8 -258699 -1
-1 0 1;
#X obj 96 97 tgl 15 0 empty empty empty 17 7 0 10 -262144 -1 -1 1 1
;
#X obj 90 77 bng 15 250 50 0 empty empty empty 17 7 0 10 -262144 -1
-1;
#X connect 3 0 4 0;
#X connect 3 0 5 0;
#X connect 4 0 6 1;
#X connect 5 0 9 1;
#X connect 6 0 10 0;
#X connect 7 0 14 0;
#X connect 8 0 15 0;
#X connect 9 0 10 1;
#X connect 11 0 12 0;
#X connect 12 0 3 0;
#X connect 12 0 17 0;
#X connect 14 0 6 0;
#X connect 15 0 9 0;
#X connect 16 0 18 0;
#X connect 17 0 14 1;
#X connect 17 0 15 1;
#X connect 18 0 17 0;
#X coords 0 -1 1 1 200 60 2 10 10;
#X restore 254 370 pd saidaaudio;
#N canvas 532 358 448 300 entradasom 0;
#X obj 113 147 adc~;
#X obj 93 184 outlet~;
#X obj 155 183 outlet~;
#X text 13 9 Entrada;
#X text 18 20 de Som;
#X connect 0 0 1 0;
#X connect 0 1 2 0;
#X coords 0 -1 1 1 60 25 2 10 10;
#X restore 945 299 pd entradasom;
#N canvas 600 243 556 537 netreceive 0;
#X obj 87 341 pdp_netreceive \$1;
#X obj 87 380 outlet;
#X floatatom 13 42 5 0 0 1 Porta - -;
#X msg 290 62 set 9990;
#X msg 303 82 set 9991;
#X msg 316 102 set 9992;
#X msg 329 122 set 9993;
#X msg 342 142 set 9994;
#X msg 355 162 set 9995;
#X msg 368 182 set 9996;
#X msg 381 202 set 9997;
#X msg 394 222 set 9998;
#X msg 407 242 set 9999;
#X obj 13 24 hradio 15 1 0 10 empty empty empty 0 -8 0 10 -241291 -1
-1 0;
#X obj 291 5 select 0 1 2 3 4 5 6 7 8 9;
#X text 12 10 Recebe videos pela rede;
#X connect 0 0 1 0;
#X connect 2 0 0 0;
#X connect 3 0 2 0;
#X connect 4 0 2 0;
#X connect 5 0 2 0;
#X connect 6 0 2 0;
#X connect 7 0 2 0;
#X connect 8 0 2 0;
#X connect 9 0 2 0;
#X connect 10 0 2 0;
#X connect 11 0 2 0;
#X connect 12 0 2 0;
#X connect 13 0 14 0;
#X connect 14 0 3 0;
#X connect 14 1 4 0;
#X connect 14 2 5 0;
#X connect 14 3 6 0;
#X connect 14 4 7 0;
#X connect 14 5 8 0;
#X connect 14 6 9 0;
#X connect 14 7 10 0;
#X connect 14 8 11 0;
#X connect 14 9 12 0;
#X coords 0 -1 1 1 170 50 2 10 10;
#X restore 1007 359 pd netreceive;
#N canvas 601 128 585 557 netsend 0;
#X obj 88 290 pdp_netsend;
#X msg 88 264 connect \$1 \$2;
#X obj 87 229 pack 0 0;
#X floatatom 13 42 5 0 0 1 Porta - -;
#X msg 290 62 set 9990;
#X msg 303 82 set 9991;
#X msg 316 102 set 9992;
#X msg 329 122 set 9993;
#X msg 342 142 set 9994;
#X msg 355 162 set 9995;
#X msg 368 182 set 9996;
#X msg 381 202 set 9997;
#X msg 394 222 set 9998;
#X msg 407 242 set 9999;
#X obj 13 24 hradio 15 1 0 10 empty empty empty 0 -8 0 10 -241291 -1
-1 0;
#X obj 291 5 select 0 1 2 3 4 5 6 7 8 9;
#X text 12 10 Manda video pela rede;
#X obj 13 149 inlet;
#X obj 87 194 inlet;
#X connect 3 0 2 1;
#X connect 4 0 3 0;
#X connect 5 0 3 0;
#X connect 6 0 3 0;
#X connect 7 0 3 0;
#X connect 8 0 3 0;
#X connect 9 0 3 0;
#X connect 10 0 3 0;
#X connect 11 0 3 0;
#X connect 12 0 3 0;
#X connect 13 0 3 0;
#X connect 14 0 15 0;
#X connect 15 0 4 0;
#X connect 15 1 5 0;
#X connect 15 2 6 0;
#X connect 15 3 7 0;
#X connect 15 4 8 0;
#X connect 15 5 9 0;
#X connect 15 6 10 0;
#X connect 15 7 11 0;
#X connect 15 8 12 0;
#X connect 15 9 13 0;
#X connect 17 0 0 0;
#X connect 18 0 2 0;
#X restore 798 279 pd netsend;
#N canvas 384 324 511 300 tecladinho-----------------------------------------------
0;
#X obj 2 4 key;
#X floatatom 2 25 3 0 0 0 - - -;
#X obj 22 90 outlet;
#X obj 34 111 outlet;
#X obj 48 132 outlet;
#X obj 61 153 outlet;
#X obj 74 90 outlet;
#X obj 86 111 outlet;
#X obj 100 132 outlet;
#X obj 114 153 outlet;
#X obj 127 90 outlet;
#X obj 139 111 outlet;
#X obj 153 132 outlet;
#X obj 166 153 outlet;
#X obj 179 90 outlet;
#X obj 193 111 outlet;
#X obj 206 132 outlet;
#X obj 219 153 outlet;
#X obj 232 90 outlet;
#X obj 244 111 outlet;
#X obj 258 132 outlet;
#X obj 271 153 outlet;
#X obj 285 90 outlet;
#X obj 297 111 outlet;
#X obj 311 132 outlet;
#X obj 325 153 outlet;
#X obj 337 89 outlet;
#X obj 350 110 outlet;
#X obj 364 131 outlet;
#X obj 376 152 outlet;
#X text 30 199 Tecladinho;
#X obj 22 41 sel 113 119 101 114 116 121 117 105 111 112 91 93 97 115
100 102 103 104 106 107 108 122 120 99 118 98 110 109;
#X text 30 213 q w e r t y u i o p [ ] a s d f g h j k l z x c v b
n m;
#X connect 0 0 1 0;
#X connect 0 0 31 0;
#X connect 31 0 2 0;
#X connect 31 1 3 0;
#X connect 31 2 4 0;
#X connect 31 3 5 0;
#X connect 31 4 6 0;
#X connect 31 5 7 0;
#X connect 31 6 8 0;
#X connect 31 7 9 0;
#X connect 31 8 10 0;
#X connect 31 9 11 0;
#X connect 31 10 12 0;
#X connect 31 11 13 0;
#X connect 31 12 14 0;
#X connect 31 13 15 0;
#X connect 31 14 16 0;
#X connect 31 15 17 0;
#X connect 31 16 18 0;
#X connect 31 17 19 0;
#X connect 31 18 20 0;
#X connect 31 19 21 0;
#X connect 31 20 22 0;
#X connect 31 21 23 0;
#X connect 31 22 24 0;
#X connect 31 23 25 0;
#X connect 31 24 26 0;
#X connect 31 25 27 0;
#X connect 31 26 28 0;
#X connect 31 27 29 0;
#X coords 0 0 1 1 388 30 2 30 200;
#X restore 820 442 pd tecladinho-----------------------------------------------
;
#N canvas 336 135 753 639 playerogg 0;
#X obj 19 506 oggread~;
#X obj 19 541 outlet~;
#X obj 35 564 outlet~;
#X obj 19 157 bng 10 250 50 0 empty empty Abrir 15 5 1 8 -262144 -1
-1;
#X obj 19 180 openpanel;
#X msg 19 209 open \$1;
#X floatatom 116 586 7 0 0 0 - - -;
#X obj 63 435 bng 10 250 50 0 empty empty Tocar 15 5 1 8 -262144 -1
-1;
#X msg 57 451 start;
#X msg 142 448 seek \$1;
#X obj 123 358 spigot;
#X obj 170 338 tgl 10 0 empty empty Loop 15 5 1 8 -262144 -1 -1 0 1
;
#X msg 29 407 stop;
#X obj 193 519 min;
#X msg 168 477 1e+06;
#X floatatom 193 544 5 0 0 0 - - -;
#X obj 44 314 spigot;
#X obj 59 282 tgl 10 0 empty empty AutoPlay 15 5 1 8 -262144 -1 -1
0 1;
#X obj 17 3 bng 10 250 50 0 empty empty Abrir 15 5 1 8 -262144 -1 -1
;
#X obj 17 19 tgl 10 0 empty empty TocarAoAbrir 15 5 1 8 -262144 -1
-1 0 1;
#X obj 63 3 bng 10 250 50 0 empty empty Tocar 15 5 1 8 -262144 -1 -1
;
#X obj 29 391 bng 10 250 50 0 empty empty Parar 15 5 1 8 -262144 -1
-1;
#X obj 116 3 bng 10 250 50 0 empty empty Parar 15 5 1 8 -262144 -1
-1;
#X text 17 -12 PLAYER OGG (MUSICA);
#X obj 170 3 tgl 10 0 empty empty RepetirNoFim 15 5 1 8 -262144 -1
-1 0 1;
#X floatatom 116 16 7 0 0 1 pos - -;
#X text 6 108 estrutura basica;
#X text 21 133 do oggread~;
#X text 11 120 igualzinha a ajuda;
#X text 12 581 saidas de som;
#X text 100 599 posicao em s;
#X obj 82 535 bng 10 250 50 0 empty empty empty 17 7 0 10 -262144 -1
-1;
#X text 98 532 <- indica;
#X text 98 543 que acabou;
#X text 98 554 o arquivo;
#X text 8 236 se ativado \, da bang;
#X text 8 246 em tocar assim que fecha;
#X text 8 256 a janela de escolha de arquivo;
#X text 171 350 se ativado \, da bang;
#X text 171 361 em tocar assim que;
#X text 171 373 termina o arquivo;
#N canvas 311 258 449 417 loopplayerogg 0;
#X obj 123 166 *;
#X obj 126 124 hsl 64 10 0 1 0 0 empty empty empty -2 -8 0 10 -262144
-1 -1 0 1;
#X floatatom 111 197 5 0 0 0 - - -;
#X obj 111 124 bng 10 250 50 0 empty empty empty 17 7 0 10 -262144
-1 -1;
#X floatatom 145 146 5 0 0 0 - - -;
#X obj 119 77 spigot;
#X obj 119 63 tgl 10 0 empty empty Loop 15 5 1 8 -262144 -1 -1 0 1
;
#X obj 192 42 hsl 32 10 0 2.9 0 0 empty empty empty -2 -8 0 10 -262144
-1 -1 3100 1;
#X obj 119 98 delay 500;
#X obj 181 77 * 1000;
#X obj 185 56 + 0.01;
#X obj 119 43 inlet;
#X obj 206 119 inlet;
#X obj 111 215 outlet;
#X obj 27 15 hsl 48 10 0 1 0 0 empty empty empty -2 -8 0 10 -262144
-1 -1 0 1;
#X obj 82 15 hsl 32 10 0 2.99 0 0 empty empty empty -2 -8 0 10 -262144
-1 -1 3100 1;
#X text 232 52 Loop minimo de 1ms;
#X text 232 63 para nao travar o PC;
#X obj 12 15 bng 10 250 50 0 empty empty empty 17 7 0 10 -262144 -1
-1;
#X obj 118 15 tgl 10 0 empty empty empty 15 5 1 8 -262144 -1 -1 0 1
;
#X msg 174 13 2.99;
#X obj 214 13 loadbang;
#X obj 12 51 inlet;
#X text 15 91 pula para;
#X text 14 104 o ponto de;
#X text 30 116 loop;
#X connect 0 0 2 0;
#X connect 1 0 0 0;
#X connect 2 0 13 0;
#X connect 3 0 2 0;
#X connect 3 0 5 0;
#X connect 4 0 0 1;
#X connect 5 0 8 0;
#X connect 6 0 5 1;
#X connect 7 0 10 0;
#X connect 8 0 3 0;
#X connect 9 0 8 1;
#X connect 10 0 9 0;
#X connect 11 0 6 0;
#X connect 11 0 19 0;
#X connect 12 0 4 0;
#X connect 14 0 1 0;
#X connect 15 0 7 0;
#X connect 18 0 3 0;
#X connect 19 0 6 0;
#X connect 20 0 15 0;
#X connect 21 0 20 0;
#X connect 22 0 18 0;
#X coords 0 -1 1 1 120 20 2 10 10;
#X restore 18 62 pd loopplayerogg;
#X floatatom 193 16 5 0 0 1 total - -;
#X text 194 561 detecta o tamanho do arquivo;
#X text 195 573 no fim da reproducao deste;
#X text 194 584 se voce souber o tamanho;
#X text 194 595 (veja no terminal) coloque;
#N canvas 311 258 449 417 loopplayerogg 0;
#X obj 123 166 *;
#X obj 126 124 hsl 64 10 0 1 0 0 empty empty empty -2 -8 0 10 -262144
-1 -1 0 1;
#X floatatom 111 197 5 0 0 0 - - -;
#X obj 111 124 bng 10 250 50 0 empty empty empty 17 7 0 10 -262144
-1 -1;
#X floatatom 145 146 5 0 0 0 - - -;
#X obj 119 77 spigot;
#X obj 119 63 tgl 10 0 empty empty Loop 15 5 1 8 -262144 -1 -1 0 1
;
#X obj 192 42 hsl 32 10 0 2.9 0 0 empty empty empty -2 -8 0 10 -262144
-1 -1 3100 1;
#X obj 119 98 delay 500;
#X obj 181 77 * 1000;
#X obj 185 56 + 0.01;
#X obj 119 43 inlet;
#X obj 206 119 inlet;
#X obj 111 215 outlet;
#X obj 27 15 hsl 48 10 0 1 0 0 empty empty empty -2 -8 0 10 -262144
-1 -1 0 1;
#X obj 82 15 hsl 32 10 0 2.99 0 0 empty empty empty -2 -8 0 10 -262144
-1 -1 3100 1;
#X text 232 52 Loop minimo de 1ms;
#X text 232 63 para nao travar o PC;
#X obj 12 15 bng 10 250 50 0 empty empty empty 17 7 0 10 -262144 -1
-1;
#X obj 118 15 tgl 10 0 empty empty empty 15 5 1 8 -262144 -1 -1 0 1
;
#X msg 174 13 2.99;
#X obj 214 13 loadbang;
#X obj 12 51 inlet;
#X text 15 91 pula para;
#X text 14 104 o ponto de;
#X text 30 116 loop;
#X connect 0 0 2 0;
#X connect 1 0 0 0;
#X connect 2 0 13 0;
#X connect 3 0 2 0;
#X connect 3 0 5 0;
#X connect 4 0 0 1;
#X connect 5 0 8 0;
#X connect 6 0 5 1;
#X connect 7 0 10 0;
#X connect 8 0 3 0;
#X connect 9 0 8 1;
#X connect 10 0 9 0;
#X connect 11 0 6 0;
#X connect 11 0 19 0;
#X connect 12 0 4 0;
#X connect 14 0 1 0;
#X connect 15 0 7 0;
#X connect 18 0 3 0;
#X connect 19 0 6 0;
#X connect 20 0 15 0;
#X connect 21 0 20 0;
#X connect 22 0 18 0;
#X coords 0 -1 1 1 120 20 2 10 10;
#X restore 140 62 pd loopplayerogg;
#N canvas 311 258 449 417 loopplayerogg 0;
#X obj 123 166 *;
#X obj 126 124 hsl 64 10 0 1 0 0 empty empty empty -2 -8 0 10 -262144
-1 -1 0 1;
#X floatatom 111 197 5 0 0 0 - - -;
#X obj 111 124 bng 10 250 50 0 empty empty empty 17 7 0 10 -262144
-1 -1;
#X floatatom 145 146 5 0 0 0 - - -;
#X obj 119 77 spigot;
#X obj 119 63 tgl 10 0 empty empty Loop 15 5 1 8 -262144 -1 -1 1 1
;
#X obj 192 42 hsl 32 10 0 2.9 0 0 empty empty empty -2 -8 0 10 -262144
-1 -1 3100 1;
#X obj 119 98 delay 500;
#X obj 181 77 * 1000;
#X obj 185 56 + 0.01;
#X obj 119 43 inlet;
#X obj 206 119 inlet;
#X obj 111 215 outlet;
#X obj 27 15 hsl 48 10 0 1 0 0 empty empty empty -2 -8 0 10 -262144
-1 -1 0 1;
#X obj 82 15 hsl 32 10 0 2.99 0 0 empty empty empty -2 -8 0 10 -262144
-1 -1 3100 1;
#X text 232 52 Loop minimo de 1ms;
#X text 232 63 para nao travar o PC;
#X obj 12 15 bng 10 250 50 0 empty empty empty 17 7 0 10 -262144 -1
-1;
#X obj 118 15 tgl 10 0 empty empty empty 15 5 1 8 -262144 -1 -1 1 1
;
#X msg 174 13 2.99;
#X obj 214 13 loadbang;
#X obj 12 51 inlet;
#X text 15 91 pula para;
#X text 14 104 o ponto de;
#X text 30 116 loop;
#X connect 0 0 2 0;
#X connect 1 0 0 0;
#X connect 2 0 13 0;
#X connect 3 0 2 0;
#X connect 3 0 5 0;
#X connect 4 0 0 1;
#X connect 5 0 8 0;
#X connect 6 0 5 1;
#X connect 7 0 10 0;
#X connect 8 0 3 0;
#X connect 9 0 8 1;
#X connect 10 0 9 0;
#X connect 11 0 6 0;
#X connect 11 0 19 0;
#X connect 12 0 4 0;
#X connect 14 0 1 0;
#X connect 15 0 7 0;
#X connect 18 0 3 0;
#X connect 19 0 6 0;
#X connect 20 0 15 0;
#X connect 21 0 20 0;
#X connect 22 0 18 0;
#X coords 0 -1 1 1 120 20 2 10 10;
#X restore 18 84 pd loopplayerogg;
#N canvas 311 258 449 417 loopplayerogg 0;
#X obj 123 166 *;
#X obj 126 124 hsl 64 10 0 1 0 0 empty empty empty -2 -8 0 10 -262144
-1 -1 0 1;
#X floatatom 111 197 5 0 0 0 - - -;
#X obj 111 124 bng 10 250 50 0 empty empty empty 17 7 0 10 -262144
-1 -1;
#X floatatom 145 146 5 0 0 0 - - -;
#X obj 119 77 spigot;
#X obj 119 63 tgl 10 0 empty empty Loop 15 5 1 8 -262144 -1 -1 1 1
;
#X obj 192 42 hsl 32 10 0 2.9 0 0 empty empty empty -2 -8 0 10 -262144
-1 -1 3100 1;
#X obj 119 98 delay 500;
#X obj 181 77 * 1000;
#X obj 185 56 + 0.01;
#X obj 119 43 inlet;
#X obj 206 119 inlet;
#X obj 111 215 outlet;
#X obj 27 15 hsl 48 10 0 1 0 0 empty empty empty -2 -8 0 10 -262144
-1 -1 0 1;
#X obj 82 15 hsl 32 10 0 2.99 0 0 empty empty empty -2 -8 0 10 -262144
-1 -1 3100 1;
#X text 232 52 Loop minimo de 1ms;
#X text 232 63 para nao travar o PC;
#X obj 12 15 bng 10 250 50 0 empty empty empty 17 7 0 10 -262144 -1
-1;
#X obj 118 15 tgl 10 0 empty empty empty 15 5 1 8 -262144 -1 -1 1 1
;
#X msg 174 13 2.99;
#X obj 214 13 loadbang;
#X obj 12 51 inlet;
#X text 15 91 pula para;
#X text 14 104 o ponto de;
#X text 30 116 loop;
#X connect 0 0 2 0;
#X connect 1 0 0 0;
#X connect 2 0 13 0;
#X connect 3 0 2 0;
#X connect 3 0 5 0;
#X connect 4 0 0 1;
#X connect 5 0 8 0;
#X connect 6 0 5 1;
#X connect 7 0 10 0;
#X connect 8 0 3 0;
#X connect 9 0 8 1;
#X connect 10 0 9 0;
#X connect 11 0 6 0;
#X connect 11 0 19 0;
#X connect 12 0 4 0;
#X connect 14 0 1 0;
#X connect 15 0 7 0;
#X connect 18 0 3 0;
#X connect 19 0 6 0;
#X connect 20 0 15 0;
#X connect 21 0 20 0;
#X connect 22 0 18 0;
#X coords 0 -1 1 1 120 20 2 10 10;
#X restore 140 84 pd loopplayerogg;
#X text 16 48 Loops:;
#X obj 281 31 inlet;
#X obj 291 41 inlet;
#X obj 332 31 inlet;
#X obj 342 41 inlet;
#X obj 385 31 inlet;
#X obj 395 41 inlet;
#X obj 436 31 inlet;
#X obj 446 41 inlet;
#X obj 47 34 hsl 175 15 0 1 0 0 empty empty empty -2 -8 0 10 -1 -233017
-1 0 1;
#X obj 276 4 /;
#X text 306 -12 pos/tot da numero de 0 a 1 que indica a posicao;
#X connect 0 0 1 0;
#X connect 0 1 2 0;
#X connect 0 2 6 0;
#X connect 0 3 14 0;
#X connect 0 3 31 0;
#X connect 3 0 4 0;
#X connect 4 0 5 0;
#X connect 5 0 0 0;
#X connect 5 0 16 0;
#X connect 6 0 13 1;
#X connect 6 0 25 0;
#X connect 7 0 8 0;
#X connect 8 0 0 0;
#X connect 9 0 0 0;
#X connect 10 0 7 0;
#X connect 11 0 10 1;
#X connect 12 0 0 0;
#X connect 13 0 15 0;
#X connect 14 0 13 0;
#X connect 15 0 42 0;
#X connect 16 0 7 0;
#X connect 17 0 16 1;
#X connect 18 0 3 0;
#X connect 19 0 17 0;
#X connect 20 0 7 0;
#X connect 21 0 12 0;
#X connect 22 0 21 0;
#X connect 24 0 11 0;
#X connect 25 0 60 0;
#X connect 31 0 10 0;
#X connect 41 0 9 0;
#X connect 42 0 41 2;
#X connect 42 0 48 2;
#X connect 42 0 47 2;
#X connect 42 0 49 2;
#X connect 42 0 60 1;
#X connect 47 0 9 0;
#X connect 48 0 9 0;
#X connect 49 0 9 0;
#X connect 51 0 41 0;
#X connect 52 0 41 1;
#X connect 53 0 47 0;
#X connect 54 0 47 1;
#X connect 55 0 48 0;
#X connect 56 0 48 1;
#X connect 57 0 49 0;
#X connect 58 0 49 1;
#X connect 60 0 59 0;
#X coords 0 -1 1 1 255 120 2 12 -12;
#X restore 819 487 pd playerogg;
#X text 789 201 Repositorio de Elementos: (duplique \, arraste \, ligue
\, pire!);
#N canvas 479 162 306 423 mixerdeaudio 0;
#X obj 46 50 cnv 15 171 46 empty empty AUDIOMIXER 2 7 1 8 -241320 -66577
0;
#X obj 149 84 hsl 64 10 0 2 0 0 empty empty empty -2 -8 0 10 -241291
-258699 -1 3150 1;
#X obj 64 197 inlet~;
#X obj 108 197 inlet~;
#X obj 188 197 inlet~;
#X obj 232 197 inlet~;
#X obj 51 63 hsl 162 15 0 2 0 0 empty empty empty -2 -8 0 10 -260818
-258699 -1 8050 1;
#X obj 48 7 loadbang;
#X msg 48 28 1;
#X floatatom 238 78 5 0 0 0 - - -;
#X obj 51 84 hsl 64 10 0 2 0 0 empty empty empty -2 -8 0 10 -241291
-258699 -1 3150 1;
#X floatatom 75 152 5 0 0 0 - - -;
#X obj 28 114 - 2;
#X obj 28 135 max -1;
#X obj 125 114 min 1;
#X floatatom 168 131 5 0 0 0 - - -;
#X obj 47 231 *~;
#X obj 91 231 *~;
#X obj 170 232 *~;
#X obj 212 234 *~;
#X obj 75 276 outlet~;
#X obj 189 274 outlet~;
#X text 120 82 L R;
#X obj 178 50 bng 10 250 50 0 empty empty Zera 12 6 1 8 -258699 -241291
-128992;
#X obj 241 145 spigot~;
#X connect 1 0 14 0;
#X connect 2 0 16 0;
#X connect 3 0 17 0;
#X connect 4 0 18 0;
#X connect 5 0 19 0;
#X connect 6 0 1 0;
#X connect 6 0 9 0;
#X connect 6 0 10 0;
#X connect 7 0 23 0;
#X connect 8 0 6 0;
#X connect 10 0 12 0;
#X connect 12 0 13 0;
#X connect 13 0 11 0;
#X connect 13 0 16 1;
#X connect 13 0 17 1;
#X connect 14 0 15 0;
#X connect 14 0 18 1;
#X connect 14 0 19 1;
#X connect 16 0 20 0;
#X connect 17 0 21 0;
#X connect 18 0 20 0;
#X connect 19 0 21 0;
#X connect 23 0 8 0;
#X coords 0 -1 1 1 175 50 2 44 48;
#X restore 266 308 pd mixerdeaudio;
#N canvas 5 22 450 300 videomixer 0;
#X obj 46 50 cnv 15 171 46 empty empty VIDEOMIXER 2 7 1 8 -261224 -143491
0;
#X obj 149 63 hsl 64 10 0 1 0 0 empty empty empty -2 -8 0 10 -241291
-258699 -1 3050 1;
#X obj 51 78 hsl 162 15 0 1 0 0 empty empty empty -2 -8 0 10 -260818
-258699 -1 8450 1;
#X obj 178 8 loadbang;
#X obj 51 63 hsl 64 10 0 1 0 0 empty empty empty -2 -8 0 10 -241291
-258699 -1 6300 1;
#X obj 178 50 bng 10 250 50 0 empty empty Zera 12 6 1 8 -258699 -241291
-128992;
#X obj 67 157 pdp_mix;
#X obj 67 108 inlet;
#X obj 89 131 inlet;
#X obj 165 157 pdp_mix;
#X obj 165 108 inlet;
#X obj 187 131 inlet;
#X obj 105 212 pdp_mix;
#X obj 105 239 outlet;
#X msg 125 7 0.5;
#X connect 1 0 9 2;
#X connect 2 0 12 2;
#X connect 3 0 5 0;
#X connect 4 0 6 2;
#X connect 5 0 14 0;
#X connect 6 0 12 0;
#X connect 7 0 6 0;
#X connect 8 0 6 1;
#X connect 9 0 12 1;
#X connect 10 0 9 0;
#X connect 11 0 9 1;
#X connect 12 0 13 0;
#X connect 14 0 2 0;
#X connect 14 0 4 0;
#X connect 14 0 1 0;
#X coords 0 -1 1 1 175 50 2 44 48;
#X restore 1 311 pd videomixer;
#N canvas 5 22 1249 664 playstation 0;
#X obj 104 81 joystick;
#X floatatom 173 127 7 0 0 3 Y-axis - -;
#X floatatom 119 127 7 0 0 3 X-axis - -;
#X floatatom 233 127 7 0 0 3 twist - -;
#X floatatom 292 127 6 0 0 3 throttle - -;
#X floatatom 20 126 5 0 0 3 hat0X - -;
#X floatatom 74 127 5 0 0 3 hat0Y - -;
#X obj 38 307 float 0;
#X obj 44 363 pack float float;
#X obj 44 388 route 0 1 2 3 4 5 6 7 8 9 10 11 12 13 14 15;
#X obj 44 419 tgl 15 0 empty empty empty 17 7 0 10 -262144 -1 -1 0
1;
#X obj 62 419 tgl 15 0 empty empty empty 17 7 0 10 -262144 -1 -1 0
1;
#X obj 81 419 tgl 15 0 empty empty empty 17 7 0 10 -262144 -1 -1 0
1;
#X obj 99 419 tgl 15 0 empty empty empty 17 7 0 10 -262144 -1 -1 0
1;
#X obj 118 419 tgl 15 0 empty empty empty 17 7 0 10 -262144 -1 -1 0
1;
#X obj 136 419 tgl 15 0 empty empty empty 17 7 0 10 -262144 -1 -1 0
1;
#X obj 155 419 tgl 15 0 empty empty empty 17 7 0 10 -262144 -1 -1 0
1;
#X obj 173 419 tgl 15 0 empty empty empty 17 7 0 10 -262144 -1 -1 0
1;
#X obj 192 419 tgl 15 0 empty empty empty 17 7 0 10 -262144 -1 -1 0
1;
#X obj 210 419 tgl 15 0 empty empty empty 17 7 0 10 -262144 -1 -1 0
1;
#X obj 229 419 tgl 15 0 empty empty empty 17 7 0 10 -262144 -1 -1 0
1;
#X obj 247 419 tgl 15 0 empty empty empty 17 7 0 10 -262144 -1 -1 0
1;
#X obj 266 419 tgl 15 0 empty empty empty 17 7 0 10 -262144 -1 -1 0
1;
#X obj 284 419 tgl 15 0 empty empty empty 17 7 0 10 -262144 -1 -1 0
1;
#X obj 303 419 tgl 15 0 empty empty empty 17 7 0 10 -262144 -1 -1 0
1;
#X obj 321 419 tgl 15 0 empty empty empty 17 7 0 10 -262144 -1 -1 0
1;
#X obj 58 259 trigger float float;
#X obj 44 465 bng 15 250 50 0 empty empty empty 17 7 0 10 -262144 -1
-1;
#X obj 44 487 tgl 15 0 empty empty empty 17 7 0 10 -262144 -1 -1 1
1;
#X obj 581 275 hsl 128 15 0 65536 0 0 empty empty empty -2 -8 0 10
-262144 -1 -1 6350 1;
#X obj 468 218 + 32767;
#X obj 634 218 vsl 15 128 0 65536 0 0 empty empty empty 0 -9 0 10 -262144
-1 -1 6350 1;
#X obj 505 184 * -1;
#X obj 548 214 + 32767;
#X obj 44 441 moses 0.5;
#X obj 63 487 bng 15 250 50 0 empty empty empty 17 7 0 10 -262144 -1
-1;
#X obj 63 509 tgl 15 0 empty empty empty 17 7 0 10 -262144 -1 -1 1
1;
#X obj 63 463 moses 0.5;
#X obj 81 511 bng 15 250 50 0 empty empty empty 17 7 0 10 -262144 -1
-1;
#X obj 81 533 tgl 15 0 empty empty empty 17 7 0 10 -262144 -1 -1 0
1;
#X obj 81 487 moses 0.5;
#X obj 100 533 bng 15 250 50 0 empty empty empty 17 7 0 10 -262144
-1 -1;
#X obj 100 555 tgl 15 0 empty empty empty 17 7 0 10 -262144 -1 -1 0
1;
#X obj 100 509 moses 0.5;
#X obj 118 556 bng 15 250 50 0 empty empty empty 17 7 0 10 -262144
-1 -1;
#X obj 118 578 tgl 15 0 empty empty empty 17 7 0 10 -262144 -1 -1 0
1;
#X obj 118 532 moses 0.5;
#X obj 137 578 bng 15 250 50 0 empty empty empty 17 7 0 10 -262144
-1 -1;
#X obj 137 600 tgl 15 0 empty empty empty 17 7 0 10 -262144 -1 -1 1
1;
#X obj 137 554 moses 0.5;
#X obj 155 602 bng 15 250 50 0 empty empty empty 17 7 0 10 -262144
-1 -1;
#X obj 155 624 tgl 15 0 empty empty empty 17 7 0 10 -262144 -1 -1 0
1;
#X obj 155 578 moses 0.5;
#X obj 174 624 bng 15 250 50 0 empty empty empty 17 7 0 10 -262144
-1 -1;
#X obj 174 646 tgl 15 0 empty empty empty 17 7 0 10 -262144 -1 -1 0
1;
#X obj 174 600 moses 0.5;
#X obj 192 465 bng 15 250 50 0 empty empty empty 17 7 0 10 -262144
-1 -1;
#X obj 192 487 tgl 15 0 empty empty empty 17 7 0 10 -262144 -1 -1 0
1;
#X obj 192 441 moses 0.5;
#X obj 211 487 bng 15 250 50 0 empty empty empty 17 7 0 10 -262144
-1 -1;
#X obj 211 509 tgl 15 0 empty empty empty 17 7 0 10 -262144 -1 -1 0
1;
#X obj 211 463 moses 0.5;
#X obj 229 511 bng 15 250 50 0 empty empty empty 17 7 0 10 -262144
-1 -1;
#X obj 229 533 tgl 15 0 empty empty empty 17 7 0 10 -262144 -1 -1 0
1;
#X obj 229 487 moses 0.5;
#X obj 248 533 bng 15 250 50 0 empty empty empty 17 7 0 10 -262144
-1 -1;
#X obj 248 555 tgl 15 0 empty empty empty 17 7 0 10 -262144 -1 -1 0
1;
#X obj 248 509 moses 0.5;
#X obj 266 556 bng 15 250 50 0 empty empty empty 17 7 0 10 -262144
-1 -1;
#X obj 266 578 tgl 15 0 empty empty empty 17 7 0 10 -262144 -1 -1 0
1;
#X obj 266 532 moses 0.5;
#X obj 285 578 bng 15 250 50 0 empty empty empty 17 7 0 10 -262144
-1 -1;
#X obj 285 600 tgl 15 0 empty empty empty 17 7 0 10 -262144 -1 -1 0
1;
#X obj 285 554 moses 0.5;
#X obj 303 602 bng 15 250 50 0 empty empty empty 17 7 0 10 -262144
-1 -1;
#X obj 303 624 tgl 15 0 empty empty empty 17 7 0 10 -262144 -1 -1 0
1;
#X obj 303 578 moses 0.5;
#X obj 322 624 bng 15 250 50 0 empty empty empty 17 7 0 10 -262144
-1 -1;
#X obj 322 646 tgl 15 0 empty empty empty 17 7 0 10 -262144 -1 -1 0
1;
#X obj 322 600 moses 0.5;
#X obj 785 262 hsl 128 15 0 65536 0 0 empty empty empty -2 -8 0 10
-262144 -1 -1 6350 1;
#X obj 672 205 + 32767;
#X obj 838 205 vsl 15 128 0 65536 0 0 empty empty empty 0 -9 0 10 -262144
-1 -1 6350 1;
#X obj 709 171 * -1;
#X obj 752 201 + 32767;
#X obj 231 270 outlet;
#X obj 295 297 outlet;
#X obj 345 270 outlet;
#X obj 415 298 outlet;
#X obj 479 429 outlet;
#X obj 489 439 outlet;
#X obj 499 449 outlet;
#X obj 509 459 outlet;
#X obj 519 469 outlet;
#X obj 529 479 outlet;
#X obj 539 489 outlet;
#X obj 549 499 outlet;
#X obj 559 509 outlet;
#X obj 569 519 outlet;
#X obj 579 529 outlet;
#X obj 589 539 outlet;
#X obj 599 549 outlet;
#X obj 609 559 outlet;
#X obj 619 569 outlet;
#X obj 629 579 outlet;
#X obj 12 12 cnv 15 273 56 empty empty JOYPAD_PREISTEITION 16 12 1
14 -258699 -24198 0;
#X text 88 91 comment;
#X text 11 55 H V H V I L S A 2 2 1 1 L E D A M R O Q;
#X text 11 45 E E D D R O I U L R L R E A A T I I X S;
#X text 11 34 A A A A T B X Q;
#X text 179 35 S;
#X text 221 35 S C D B E;
#X obj 174 196 / 32767;
#X obj 250 235 / 32767;
#X obj 286 194 / 32767;
#X obj 369 235 / 32767;
#X obj 240 208 * -1;
#X connect 0 0 2 0;
#X connect 0 1 1 0;
#X connect 0 2 3 0;
#X connect 0 3 4 0;
#X connect 0 4 5 0;
#X connect 0 5 6 0;
#X connect 1 0 32 0;
#X connect 1 0 116 0;
#X connect 2 0 30 0;
#X connect 2 0 112 0;
#X connect 3 0 81 0;
#X connect 3 0 114 0;
#X connect 4 0 83 0;
#X connect 4 0 115 0;
#X connect 5 0 7 0;
#X connect 6 0 26 0;
#X connect 7 0 8 0;
#X connect 8 0 9 0;
#X connect 9 0 10 0;
#X connect 9 1 11 0;
#X connect 9 2 12 0;
#X connect 9 3 13 0;
#X connect 9 4 14 0;
#X connect 9 5 15 0;
#X connect 9 6 16 0;
#X connect 9 7 17 0;
#X connect 9 8 18 0;
#X connect 9 9 19 0;
#X connect 9 10 20 0;
#X connect 9 11 21 0;
#X connect 9 12 22 0;
#X connect 9 13 23 0;
#X connect 9 14 24 0;
#X connect 9 15 25 0;
#X connect 10 0 34 0;
#X connect 11 0 37 0;
#X connect 12 0 40 0;
#X connect 13 0 43 0;
#X connect 14 0 46 0;
#X connect 15 0 49 0;
#X connect 16 0 52 0;
#X connect 17 0 55 0;
#X connect 18 0 58 0;
#X connect 19 0 61 0;
#X connect 20 0 64 0;
#X connect 21 0 67 0;
#X connect 22 0 70 0;
#X connect 23 0 73 0;
#X connect 24 0 76 0;
#X connect 25 0 79 0;
#X connect 26 0 7 1;
#X connect 26 1 8 1;
#X connect 27 0 28 0;
#X connect 28 0 89 0;
#X connect 30 0 29 0;
#X connect 32 0 33 0;
#X connect 33 0 31 0;
#X connect 34 0 27 0;
#X connect 35 0 36 0;
#X connect 36 0 90 0;
#X connect 37 0 35 0;
#X connect 38 0 39 0;
#X connect 39 0 91 0;
#X connect 40 0 38 0;
#X connect 41 0 42 0;
#X connect 42 0 92 0;
#X connect 43 0 41 0;
#X connect 44 0 45 0;
#X connect 45 0 93 0;
#X connect 46 0 44 0;
#X connect 47 0 48 0;
#X connect 48 0 94 0;
#X connect 49 0 47 0;
#X connect 50 0 51 0;
#X connect 51 0 95 0;
#X connect 52 0 50 0;
#X connect 53 0 54 0;
#X connect 54 0 96 0;
#X connect 55 0 53 0;
#X connect 56 0 57 0;
#X connect 57 0 97 0;
#X connect 58 0 56 0;
#X connect 59 0 60 0;
#X connect 60 0 98 0;
#X connect 61 0 59 0;
#X connect 62 0 63 0;
#X connect 63 0 99 0;
#X connect 64 0 62 0;
#X connect 65 0 66 0;
#X connect 66 0 100 0;
#X connect 67 0 65 0;
#X connect 68 0 69 0;
#X connect 69 0 101 0;
#X connect 70 0 68 0;
#X connect 71 0 72 0;
#X connect 72 0 102 0;
#X connect 73 0 71 0;
#X connect 74 0 75 0;
#X connect 75 0 103 0;
#X connect 76 0 74 0;
#X connect 77 0 78 0;
#X connect 78 0 104 0;
#X connect 79 0 77 0;
#X connect 81 0 80 0;
#X connect 83 0 84 0;
#X connect 84 0 82 0;
#X connect 112 0 85 0;
#X connect 113 0 86 0;
#X connect 114 0 87 0;
#X connect 115 0 88 0;
#X connect 116 0 113 0;
#X coords 0 -1 1 1 277 60 2 10 10;
#X restore 94 161 pd playstation;
#N canvas 318 316 450 334 player 0;
#X obj 12 2 cnv 15 146 106 empty empty PLAYERDEVIDEO 0 7 1 8 -44926
-355 0;
#X obj 81 28 bng 10 250 50 0 empty empty AbrirVideo 15 5 1 8 -250685
-1 -1;
#X obj 102 129 openpanel;
#X msg 102 149 open \$1;
#X obj 14 163 metro 40;
#X obj 25 133 inlet;
#X obj 93 246 outlet;
#X obj 62 41 bng 10 250 50 0 empty empty Bate 15 5 1 8 -260818 -1 -1
;
#X obj 14 41 tgl 10 0 empty empty Ativa 15 5 1 8 -24198 -1 -1 0 1;
#X obj 106 41 bng 10 250 50 0 empty empty Fecha 15 5 1 8 -258699 -1
-1;
#X msg 201 142 close;
#X floatatom 82 67 4 0 0 0 Frames - -;
#X floatatom 127 67 4 0 0 0 / - -;
#X obj 93 221 pdp_yqt --------;
#X obj 177 246 outlet~;
#X obj 201 263 outlet~;
#X obj 14 54 tgl 10 0 empty empty Loop 15 5 1 8 -241291 -1 -1 0 1;
#X msg -18 189 loop \$1;
#X obj 62 54 bng 10 250 50 0 empty empty Play 15 5 1 8 -261689 -1 -1
;
#X obj 106 54 bng 10 250 50 0 empty empty Stop 15 5 1 8 -261681 -1
-1;
#X msg 154 181 play;
#X msg 201 181 stop;
#X text 23 25 PLAYER;
#X text 60 80 saidas;
#X text 11 94 video;
#X text 61 94 audioL;
#X text 115 94 audioR;
#X text 12 12 controle;
#X text 120 0 frame;
#X text 123 11 (pos);
#X obj 200 101 inlet;
#X connect 1 0 2 0;
#X connect 2 0 3 0;
#X connect 3 0 13 0;
#X connect 4 0 13 0;
#X connect 5 0 4 1;
#X connect 7 0 13 0;
#X connect 8 0 4 0;
#X connect 9 0 10 0;
#X connect 10 0 13 0;
#X connect 13 0 6 0;
#X connect 13 1 11 0;
#X connect 13 2 12 0;
#X connect 13 4 14 0;
#X connect 13 5 15 0;
#X connect 16 0 17 0;
#X connect 17 0 13 0;
#X connect 18 0 20 0;
#X connect 19 0 21 0;
#X connect 20 0 13 0;
#X connect 21 0 13 0;
#X connect 30 0 13 1;
#X coords 0 -1 1 1 150 110 2 10 0;
#X restore 329 37 pd player;
#N canvas 286 47 672 591 effectbox 1;
#X obj 3 3 inlet;
#X obj 596 571 outlet;
#X obj 3 174 pdp_spigot;
#X obj 3 277 pdp_spigot;
#X obj 3 555 pdp_spigot;
#X obj 596 4 pdp_spigot;
#X obj 68 154 tgl 15 0 empty empty empty 17 7 0 10 -262144 -1 -1 1
1;
#X obj 68 258 tgl 15 0 empty empty empty 17 7 0 10 -262144 -1 -1 1
1;
#X obj 68 299 pdp_rotate 15;
#X obj 349 6 inlet;
#X obj 389 6 inlet;
#X obj 133 6 inlet;
#X obj 173 6 inlet;
#X obj 133 28 * 2;
#X obj 133 51 + 1;
#X obj 213 6 inlet;
#X obj 253 6 inlet;
#X floatatom 213 72 5 0 0 0 - - -;
#X floatatom 253 72 5 0 0 0 - - -;
#X obj 213 28 + 1;
#X obj 253 28 + 1;
#X obj 213 50 / 2;
#X obj 253 50 / 2;
#X msg 213 92 centerx \$1;
#X msg 253 114 centery \$1;
#X obj 429 6 inlet;
#X obj 469 6 inlet;
#X obj 68 236 r rotate;
#X obj 389 55 s rotate;
#X obj 68 195 pdp_zoom 1;
#X obj 3 362 pdp_spigot;
#X obj 68 342 tgl 15 0 empty empty empty 17 7 0 10 -262144 -1 -1 0
1;
#X obj 173 49 / 2;
#X obj 173 27 + 0;
#X obj 187 170 * 360;
#X connect 0 0 2 0;
#X connect 2 0 3 0;
#X connect 2 1 29 0;
#X connect 3 0 30 0;
#X connect 3 1 8 0;
#X connect 4 0 5 0;
#X connect 5 0 1 0;
#X connect 6 0 2 1;
#X connect 7 0 3 1;
#X connect 8 0 30 0;
#X connect 10 0 28 0;
#X connect 11 0 13 0;
#X connect 12 0 33 0;
#X connect 13 0 14 0;
#X connect 14 0 29 1;
#X connect 15 0 19 0;
#X connect 16 0 20 0;
#X connect 17 0 23 0;
#X connect 18 0 24 0;
#X connect 19 0 21 0;
#X connect 20 0 22 0;
#X connect 21 0 17 0;
#X connect 22 0 18 0;
#X connect 23 0 29 0;
#X connect 24 0 29 0;
#X connect 27 0 7 0;
#X connect 29 0 3 0;
#X connect 30 0 4 0;
#X connect 30 1 4 0;
#X connect 31 0 30 1;
#X connect 32 0 34 0;
#X connect 33 0 32 0;
#X connect 34 0 8 1;
#X restore 105 248 pd effectbox;
#X connect 1 0 4 0;
#X connect 1 0 5 0;
#X connect 1 0 7 0;
#X connect 1 0 18 0;
#X connect 4 0 16 0;
#X connect 5 0 19 0;
#X connect 7 1 15 0;
#X connect 7 2 15 1;
#X connect 12 0 13 0;
#X connect 12 1 13 1;
#X connect 12 2 13 2;
#X connect 12 3 13 3;
#X connect 12 4 13 4;
#X connect 12 5 13 5;
#X connect 12 6 13 6;
#X connect 12 7 13 7;
#X connect 15 0 8 0;
#X connect 15 1 8 1;
#X connect 16 0 3 0;
#X connect 17 0 19 1;
#X connect 17 1 19 2;
#X connect 17 2 19 3;
#X connect 17 3 19 4;
#X connect 17 4 19 5;
#X connect 17 5 19 6;
#X connect 17 6 19 7;
#X connect 17 7 19 8;
#X connect 18 1 15 2;
#X connect 18 2 15 3;
#X connect 19 0 16 1;
