#N canvas 0 0 450 300 10;
#X obj 14 250 outlet;
#X obj 14 219 pdp_noise;
#X obj 14 189 metro 40;
#X msg 75 112 type yv12;
#X msg 133 79 type grey;
#X obj 13 13 cnv 15 120 41 empty empty NOISEGENERATOR 0 8 1 8 -241291
-258699 0;
#X obj 78 27 bng 10 250 50 0 empty empty Bate 15 5 1 8 -260818 -1 -1
;
#X obj 14 27 tgl 10 0 empty empty Ativa 15 5 1 8 -24198 -1 -1 0 1;
#X obj 14 41 bng 10 250 50 0 empty empty Colorido 15 5 1 8 -44926 -1
-1;
#X obj 78 41 bng 10 250 50 0 empty empty PB 15 5 1 8 -166441 -1 -1
;
#X text 146 18 Uma caixinha para gerar pdp_noise \, isto é \, noise
de vídeo.;
#X obj 114 138 r metro;
#X connect 1 0 0 0;
#X connect 2 0 1 0;
#X connect 3 0 1 0;
#X connect 4 0 1 0;
#X connect 6 0 1 0;
#X connect 7 0 2 0;
#X connect 8 0 3 0;
#X connect 9 0 4 0;
#X connect 11 0 2 1;
#X coords 0 -1 1 1 126 47 2 10 10;
