#N canvas 316 261 567 364 10;
#X obj 12 2 cnv 15 146 150 empty empty PLAYERDEVIDEO 0 7 1 8 -44926
-355 0;
#X obj 89 3 bng 10 250 50 0 empty empty AbrirVideo 15 5 1 8 -250685
-1 -1;
#X obj 108 209 openpanel;
#X msg 108 229 open \$1;
#X obj 14 203 metro 40;
#X obj 93 286 outlet;
#X obj 62 18 bng 10 250 50 0 empty empty Bate 15 5 1 8 -260818 -1 -1
;
#X obj 14 18 tgl 10 0 empty empty Ativa 15 5 1 8 -24198 -1 -1 1 1;
#X obj 106 18 bng 10 250 50 0 empty empty Fecha 15 5 1 8 -258699 -1
-1;
#X msg 24 175 close;
#X floatatom 87 110 4 0 0 0 Quadros - -;
#X floatatom 127 110 4 0 0 0 / - -;
#X obj 93 261 pdp_yqt --------;
#X obj 177 286 outlet~;
#X obj 201 303 outlet~;
#X obj 14 31 tgl 10 0 empty empty Loop 15 5 1 8 -241291 -1 -1 1 1;
#X msg -13 264 loop \$1;
#X obj 62 31 bng 10 250 50 0 empty empty Play 15 5 1 8 -261689 -1 -1
;
#X obj 106 31 bng 10 250 50 0 empty empty Stop 15 5 1 8 -261681 -1
-1;
#X msg -5 228 play;
#X msg 42 228 stop;
#X text 60 123 saidas;
#X text 11 137 video;
#X text 61 137 audioL;
#X text 115 137 audioR;
#X obj 186 234 inlet;
#X obj 23 73 hsl 125 12 0 1 0 0 empty empty empty -2 -8 0 10 -258113
-262144 -1 4700 1;
#X obj 74 196 * 1;
#X obj 74 219 t b f;
#X floatatom 112 332 5 0 0 0 - - -;
#X obj 112 308 / 1;
#X obj 15 53 hsl 140 8 0 1 0 0 empty empty empty -2 -8 0 10 -1 -4032
-1 2632 1;
#X obj 205 38 r metro;
#X obj 22 98 hsl 128 8 0 1 0 0 empty empty empty -2 -8 0 10 -257985
-1 -1 6350 1;
#X floatatom 207 148 5 0 0 0 - - -;
#X obj 267 3 loadbang;
#X msg 267 27 0.5;
#X obj 167 74 -40;
#X obj 167 98 * 2;
#X obj 207 74 * 40;
#X text 64 37 posição;
#X text 64 57 scratch;
#X text 56 82 velocidade;
#X obj 167 123 * 0.7;
#X obj 167 148 + 0.3;
#X obj 148 87 bng 8 250 50 0 empty empty reset -25 4 1 10 -257985 -1
-1;
#X obj 207 97 * -1;
#X obj 207 123 + 80;
#X obj 279 55 * 2;
#X obj 115 159 inlet;
#X connect 1 0 2 0;
#X connect 2 0 3 0;
#X connect 3 0 12 0;
#X connect 4 0 12 0;
#X connect 6 0 12 0;
#X connect 7 0 4 0;
#X connect 8 0 9 0;
#X connect 9 0 12 0;
#X connect 12 0 5 0;
#X connect 12 1 10 0;
#X connect 12 1 30 0;
#X connect 12 2 11 0;
#X connect 12 2 27 1;
#X connect 12 2 30 1;
#X connect 12 4 13 0;
#X connect 12 5 14 0;
#X connect 15 0 16 0;
#X connect 16 0 12 0;
#X connect 17 0 19 0;
#X connect 18 0 20 0;
#X connect 19 0 12 0;
#X connect 20 0 12 0;
#X connect 25 0 12 1;
#X connect 26 0 27 0;
#X connect 27 0 28 0;
#X connect 28 0 12 0;
#X connect 28 1 12 1;
#X connect 29 0 31 0;
#X connect 30 0 29 0;
#X connect 32 0 4 1;
#X connect 32 0 39 1;
#X connect 32 0 48 0;
#X connect 33 0 37 0;
#X connect 34 0 4 1;
#X connect 35 0 36 0;
#X connect 36 0 33 0;
#X connect 37 0 38 0;
#X connect 38 0 43 0;
#X connect 39 0 46 0;
#X connect 43 0 44 0;
#X connect 44 0 39 0;
#X connect 45 0 36 0;
#X connect 46 0 47 0;
#X connect 47 0 34 0;
#X connect 48 0 47 1;
#X connect 49 0 12 0;
#X coords 0 -1 1 1 150 154 2 10 0;
