#N canvas 43 305 450 300 10;
#X obj 12 12 cnv 10 146 41 empty empty WEBCAM 2 7 1 8 -143330 -42246
0;
#X obj 13 320 pdp_v4l;
#X obj 61 26 bng 10 250 50 0 empty empty Bate 15 5 1 8 -260818 -1 -1
;
#X obj 13 26 tgl 10 0 empty empty Ativa 15 5 1 8 -24198 -1 -1 0 1;
#X obj 13 126 metro 40;
#X obj 13 343 outlet;
#X obj 95 13 hradio 10 1 0 4 empty empty empty 0 -8 0 10 -241291 -1
-1 0;
#X obj 123 113 sel 0 1 2 3;
#X msg 73 151 close;
#X msg 123 151 open /dev/video0;
#X msg 141 168 open /dev/video1;
#X obj 105 26 bng 10 250 50 0 empty empty Fecha 15 5 1 8 -258699 -1
-1;
#X msg 26 173 type yv12;
#X msg 43 199 type grey;
#X obj 13 40 bng 10 250 50 0 empty empty Colorido 15 5 1 8 -44926 -1
-1;
#X obj 77 40 bng 10 250 50 0 empty empty PB 15 5 1 8 -166441 -1 -1
;
#X msg 159 185 open /dev/video2;
#X msg 177 202 open /dev/video3;
#X text 175 11 Abstração para capturar a webcam.;
#X obj 64 104 r metro;
#X connect 1 0 5 0;
#X connect 2 0 1 0;
#X connect 3 0 4 0;
#X connect 4 0 1 0;
#X connect 6 0 7 0;
#X connect 7 0 9 0;
#X connect 7 1 10 0;
#X connect 7 2 16 0;
#X connect 7 3 17 0;
#X connect 8 0 1 0;
#X connect 9 0 1 0;
#X connect 10 0 1 0;
#X connect 11 0 8 0;
#X connect 12 0 1 0;
#X connect 13 0 1 0;
#X connect 14 0 12 0;
#X connect 15 0 13 0;
#X connect 16 0 1 0;
#X connect 17 0 1 0;
#X connect 19 0 4 1;
#X coords 0 -1 1 1 150 45 2 10 10;
